<?xml version="1.0" encoding="UTF-8" standalone="no"?>
<!DOCTYPE svg PUBLIC "-//W3C//DTD SVG 1.1//EN" "http://www.w3.org/Graphics/SVG/1.1/DTD/svg11.dtd">
<svg width="100%" height="100%" viewBox="0 0 482 361" version="1.1" xmlns="http://www.w3.org/2000/svg" xmlns:xlink="http://www.w3.org/1999/xlink" xml:space="preserve" xmlns:serif="http://www.serif.com/" style="fill-rule:evenodd;clip-rule:evenodd;stroke-linejoin:round;stroke-miterlimit:2;">
    <g>
        <g transform="matrix(1.00139,0,0,1,0,0)">
            <rect x="0" y="0" width="481.333" height="361" style="fill:rgb(33,33,33);"/>
        </g>
        <g transform="matrix(1,0,0,1,11.0302,25.2774)">
            <text x="220.075px" y="91.36px" style="font-family:'HiraKakuStd-W8', 'Hiragino Kaku Gothic Std', sans-serif;font-weight:800;font-size:24px;fill:white;">1</text>
        </g>
        <g transform="matrix(1,0,0,1,87.8224,101.706)">
            <text x="220.075px" y="91.36px" style="font-family:'HiraKakuStd-W8', 'Hiragino Kaku Gothic Std', sans-serif;font-weight:800;font-size:24px;fill:white;">2</text>
        </g>
        <g transform="matrix(1,0,0,1,9.71547,178.134)">
            <text x="220.075px" y="91.36px" style="font-family:'HiraKakuStd-W8', 'Hiragino Kaku Gothic Std', sans-serif;font-weight:800;font-size:24px;fill:white;">4</text>
        </g>
        <g transform="matrix(1,0,0,1,-68.3914,101.706)">
            <text x="220.075px" y="91.36px" style="font-family:'HiraKakuStd-W8', 'Hiragino Kaku Gothic Std', sans-serif;font-weight:800;font-size:24px;fill:white;">8</text>
        </g>
        <g transform="matrix(1,0,0,1,-91.5728,35.0818)">
            <text x="173.293px" y="308.382px" style="font-family:'HiraKakuStd-W8', 'Hiragino Kaku Gothic Std', sans-serif;font-weight:800;font-size:15.574px;fill:white;fill-opacity:0.25;">Each side gets assigned a binary value</text>
        </g>
        <g transform="matrix(0.401667,0,0,0.401667,5.68434e-14,-2.55795e-13)">
            <g>
                <g transform="matrix(1,0,0,0.495043,0,454.461)">
                    <path d="M0,900L0,0L1200,0L1200,900L0,900Z" style="fill:rgb(144,144,144);fill-rule:nonzero;"/>
                </g>
                <g transform="matrix(1,0,0,-0.504088,0,454.461)">
                    <path d="M0,900L0,0L1200,0L1200,900L0,900Z" style="fill-rule:nonzero;"/>
                </g>
                <path d="M0,900L0,0L1200,0L1200,900L0,900ZM424.4,752.5C426.8,750 425.3,748 420.9,748L417,748L417,705.1L420.8,704.8C424,704.5 424.5,704.2 424.5,702C424.5,699.6 424.2,699.5 418.5,699.2C415.2,699.1 411.8,699.4 411,700C409.8,700.8 409.4,704.6 409.2,722.2C408.8,747.3 409.2,751.8 412.3,753C415.9,754.4 422.7,754.1 424.4,752.5ZM778.8,752.4C781,750.9 781,750.6 781,726.6C781,708.6 780.7,701.9 779.7,700.6C777.8,698 765.7,698.6 765.2,701.4C764.7,703.7 766.6,705 770.3,705L773,705L773,748L769.5,748C765.3,748 763.7,750.5 766.5,752.6C769,754.5 776,754.4 778.8,752.4ZM88.1,741.1C91,738.7 89.9,737.3 85,736.8L81.5,736.5L80.9,717.3L84,716.7C88.2,715.8 88.2,712.4 84,711.5C81.4,710.9 81,710.4 81,707.4C81,703 79.5,700 77.2,700C74.3,700 73,702.1 73,706.7C73,709.9 72.5,711.2 71.3,711.7C70.3,712.1 69.2,712.8 68.8,713.4C67.9,714.7 69.8,717 71.6,717C72.7,717 73,719.3 73,727.5C73,737.4 73.2,738.2 75.5,740.5C78.6,743.6 84.7,743.9 88.1,741.1ZM100,741C100.6,739.8 100.9,733.8 100.8,725.9C100.5,714.6 100.2,712.6 98.8,711.6C97.5,710.8 96.5,710.8 95.3,711.6C93.7,712.6 93.5,714.6 93.2,726.5C92.9,740.8 93.5,743 97.1,743C98.1,743 99.4,742.1 100,741ZM115.9,741.6C116.7,740.7 117,734.2 116.8,720.5C116.5,702.9 116.3,700.6 114.8,699.6C113.5,698.8 112.5,698.8 111.3,699.6C109.7,700.6 109.5,702.9 109.2,719.9C109.1,732 109.3,739.8 110,741C111.2,743.3 114.2,743.6 115.9,741.6ZM148,741.1C152.5,738.8 154.5,735.1 152.5,733.1C151.3,731.9 150.6,732 147.8,734.2C143.3,737.6 140.4,738.4 137.1,737C134.5,736 132,732.4 132,730C132,729.4 135.8,729 140.4,729C151.5,729 154,728 154,723.8C154,709.6 132.4,706 125.7,719C123.3,723.7 123.8,732.5 126.8,736.7C131.1,742.8 141,744.9 148,741.1ZM196,741.1C196.6,739.9 197,731.5 197,720.6C197,705.1 196.7,701.9 195.4,700.6C193.6,698.7 192.2,699.3 188.6,703.7C187.1,705.5 183.6,708.2 180.9,709.6C177.7,711.4 176,713 176,714.2C176,717.4 179.1,717.5 184.2,714.7L189,712L189,726.3C189,741 189.5,743 193.2,743C194.1,743 195.4,742.1 196,741.1ZM233.1,740.8C238.1,738 241.5,731.5 240.6,726.2C239.9,721.7 237.3,718.1 233,715.6C230.2,713.9 229,713.8 224.8,714.7L219.8,715.7L220.4,712.7C220.7,711.1 221,709.1 221,708.4C221,707.3 222.8,707 228.8,707C237.6,707 239.3,706.3 238.8,702.9C238.5,700.6 238.2,700.5 227.9,700.2C219.7,700 217,700.3 216.1,701.4C215.5,702.1 214.2,706.9 213.3,711.9C211.8,720.5 211.8,721.2 213.4,722.8C215,724.4 215.3,724.4 219,722.3C224.3,719.2 228.3,719.3 230.9,722.6C234.4,727.1 233,734.2 228.1,736.6C224.9,738.3 220.2,736.5 218.1,732.9C216.2,729.5 214.2,728.6 212.4,730.1C210.6,731.6 210.6,734 212.6,736.9C216.9,743 226,744.8 233.1,740.8ZM268.8,741.8C270.1,740.5 270.6,715.6 269.4,712.6C268.5,710.4 264.3,710.6 263,712.9C261.7,715.4 261.7,737 263,740.4C264,743.2 266.8,743.8 268.8,741.8ZM297.3,742.1C306.9,738.4 305.8,726.6 295.7,724.4C288.6,722.9 284.9,720.8 285.2,718.6C285.7,715.3 291.8,715.1 295,718.5C297.7,721.3 300.2,721.7 302,719.5C303.8,717.3 301,713.5 296.4,712C287.3,709 277.7,713.1 277.7,720.1C277.7,724.2 280.1,726.2 288.5,729C295.7,731.4 298,733.9 295.4,736.4C292.8,739.1 288.4,738.3 284.2,734.6C281.3,731.9 280.1,731.4 278.7,732.1C275.2,734.1 277.9,739.7 283.5,742C286.2,743.2 294.3,743.2 297.3,742.1ZM342.4,740.9L346.2,738.9L348.7,741.2C350.6,743 351.4,743.2 352.8,742.3C353.8,741.7 354.4,740.2 354.3,738.9C354.1,737.6 353.8,732.2 353.4,727C353.1,721.8 352.4,716.5 351.8,715.3C348.7,709 329.9,709.8 326.9,716.4C324.3,722.1 328.8,724 333.2,719C336.7,715 342.2,714.8 344.6,718.6C346.8,721.9 345.9,722.6 337.6,724.4C327,726.6 323.6,730.3 325.4,737.6C326.7,742.8 335.7,744.5 342.4,740.9ZM369,741.1C369.6,739.9 370,731.6 370,721C370,710.4 369.6,702.1 369,700.9C367.8,698.8 365,698.4 363.2,700.2C361.5,701.9 361.5,740.1 363.2,741.8C365,743.6 367.8,743.2 369,741.1ZM384.9,741.6C385.7,740.7 386,734.2 385.8,720.5C385.5,702.9 385.3,700.6 383.8,699.6C382.5,698.8 381.5,698.8 380.3,699.6C378.7,700.6 378.5,702.9 378.2,719.9C378.1,732 378.3,739.8 379,741C380.2,743.3 383.2,743.6 384.9,741.6ZM449.8,741.8C450.7,740.9 451,734.9 451,720.9C451,696.7 450.7,696 442.7,703.7C439.8,706.5 436.1,709.5 434.3,710.4C430.5,712.3 429.8,713.3 430.6,715.4C431.5,717.7 435,717.4 439.3,714.5L443,711.9L443,724.9C443,732 443.4,739 444,740.4C445,743.2 447.8,743.8 449.8,741.8ZM654.8,741.8C655.5,741.1 656,738.9 656,736.9C656,733.5 656.3,733.1 658.8,732.8C660.9,732.6 661.5,732 661.5,730C661.5,728 660.9,727.4 658.8,727.2L656,726.9L656,714.1C656,700.6 655.3,698.4 651.3,699.2C650.3,699.4 644.6,706 638.7,713.9C628.6,727.3 628,728.3 629.3,730.4C630.6,732.2 631.8,732.5 639.9,732.8L649,733.1L649,737.4C649,739.7 649.3,742 649.7,742.3C650.7,743.4 653.5,743.1 654.8,741.8ZM753.5,741.4C758.3,739.1 760.2,736.6 760.7,731.7C761.3,726.6 759.1,721.5 755.9,720.5C753.8,719.8 753.8,719.8 756.4,717.1C760.2,713.2 760.6,709.2 757.8,705C753.3,698.3 741.5,697.3 735.8,703.1C731.8,707 731.7,713 735.4,716.8L737.7,719.1L734.3,722.5C730.4,726.4 729.9,731.6 732.9,736.6C736.5,742.5 746.4,744.8 753.5,741.4ZM559.5,739C559.5,736.5 559.4,736.5 550.3,736.2C545.2,736.1 541,735.6 541,735.2C541,734.8 544.8,730.9 549.4,726.5C555.7,720.5 558.1,717.5 558.9,714.6C560.7,707.7 556.7,701.6 549.1,699.9C539.6,697.8 530.6,703.3 531.2,710.8C531.4,713.7 532,714.6 533.6,714.8C535.2,715 536.2,714.2 537.4,711.5C540.8,704.4 547.5,703.2 550.9,709.1C553,712.8 550.4,717.2 541.1,725.2C532.7,732.4 529.5,737.2 531.1,740.2C532,741.9 533.4,742 545.8,741.8L559.5,741.5L559.5,739ZM498,736L498,725L509,725L509,718.1L503.8,717.8L498.5,717.5L498.2,711.8L497.9,706L491.1,706L490.8,711.8L490.5,717.5L485.3,717.8L480,718.1L480,725L491,725L491,736L498,736ZM599,736L599,725L610,725L610,718L599.1,718L598.8,712.3C598.5,706.6 598.5,706.5 595.3,706.2L592.1,705.9L591.5,717.5L585.8,717.8L580,718.1L580,724.9L585.8,725.2L591.5,725.5L591.8,730.8L592.1,736L599,736ZM699.2,730.8L699.5,725.5L705.3,725.2L711,724.9L711,718.1L705.3,717.8L699.5,717.5L699.2,711.8L698.9,706L692.1,706L691.8,711.8L691.5,717.5L686.3,717.8L681,718.1L681,725L692,725L692,736L698.9,736L699.2,730.8ZM99.4,705.4C100.3,704.6 101,703.5 101,703C101,702.1 98.2,699 97.4,699C95.7,699 93,701.3 93,702.8C93,706.6 96.7,708.1 99.4,705.4ZM269.4,704.8C270.7,702.7 269.2,699.7 266.8,699.2C265.2,698.9 262,701.5 262,703C262,704.5 265.2,707.1 266.8,706.8C267.6,706.6 268.8,705.7 269.4,704.8ZM356,676.5C356.7,675.7 357.5,672.1 357.7,668.6L358.3,662.2L362.2,664.2C369.3,667.9 377.4,664.3 380.1,656.2C381.6,651.8 380.7,643 378.4,639.5C374.8,634 367.1,632.4 361.2,636C357.2,638.4 357.4,638.4 356.7,636C356.1,633.6 351.5,633.2 350.6,635.6C349.4,638.7 349.9,675.5 351.2,676.8C352.8,678.4 354.5,678.3 356,676.5ZM611.7,675.7C613.3,674.8 615.2,672.9 616,671.3C617.7,667.6 618.6,640.6 617.1,636.8C615.9,633.5 612.6,633.1 610.8,635.9C609.7,637.7 609.6,637.7 606.6,635.9C604.9,634.9 601.6,634 599.4,634C592,634 587,640 587,649C587,658.6 590.9,663.9 598.5,664.8C602.2,665.2 603.7,664.8 606,663.1C607.6,662 609.2,661 609.6,661C611,661 609.1,669.5 607.4,670.7C606.4,671.4 603.8,672 601.5,672C598.3,672 596.8,671.4 595,669.5C592.2,666.5 588.6,666.5 588.2,669.5C587.2,676.4 602.5,680.4 611.7,675.7ZM417.1,676C421,673.8 418.1,670 412.6,670L410,670L410,628L413.3,628C417.4,628 419.3,626.8 418.8,624.4C418.5,622.8 417.4,622.4 412.2,622.2C408.3,622 405.3,622.4 404.4,623.1C403.3,624 403,628.9 403,648.9C403,662.4 403.4,674 403.8,674.6C405.2,676.9 413.8,677.7 417.1,676ZM469.4,676L472,675L472,649.7C472,631.4 471.7,624.1 470.8,623.2C470.1,622.5 466.9,622 463.4,622C458.6,622 457.1,622.4 456.6,623.6C455.6,626.1 457.8,628 461.6,628L465,628L465,670L462.4,670C457,670 454,673.7 457.8,675.9C460,677.2 466.1,677.3 469.4,676ZM713.1,676C717,673.8 714.1,670 708.6,670L706,670L706,628L709.4,628C713.2,628 715.4,626.1 714.4,623.6C713.9,622.4 712.4,622 707.6,622C704.1,622 700.9,622.5 700.2,623.2C699.3,624.1 699,631.4 699,649.7L699,675.1L701.3,676C704.4,677.2 710.7,677.2 713.1,676ZM765.8,675.4C768,673.9 768,673.6 768,649.6C768,631.6 767.7,624.9 766.7,623.6C764.8,621 752.7,621.6 752.2,624.4C751.7,626.7 753.6,628 757.3,628L760,628L760,649C760,669.6 760,670 757.9,670C752.9,670 750.2,673.8 753.8,675.9C756.4,677.5 763.3,677.2 765.8,675.4ZM1075.8,676.4C1077.3,676 1078,675 1078,673.4C1078,671.4 1077.4,670.9 1074,670.4L1070,669.7L1070,628.1L1073.8,627.8C1077,627.5 1077.5,627.2 1077.5,625C1077.5,622.6 1077.2,622.5 1071,622.2C1065.8,622 1064.3,622.2 1063.3,623.6C1061.7,625.8 1061.4,669.4 1062.9,673.4C1064.2,676.6 1069.9,677.9 1075.8,676.4ZM1130.3,675.1C1131.9,673.5 1132.6,628.6 1131.1,624.7C1130,622 1129.8,621.9 1123.3,622.2C1116.8,622.5 1116.5,622.6 1116.5,625C1116.5,627.2 1117,627.5 1120.3,627.8L1124,628.1L1124,669.7L1120,670.4C1116.6,670.9 1116,671.4 1116,673.4C1116,674.8 1116.6,676.1 1117.3,676.4C1119.4,677.3 1129,676.4 1130.3,675.1ZM91.3,664.1C93.2,662.2 90.8,659.4 87.5,659.8C85.9,660 84.4,659.6 83.9,658.8C83.4,658.1 83,653.6 83,648.8L83,640.1L85.8,639.8C87.7,639.6 88.6,638.9 88.8,637.2C89.1,635.4 88.6,634.9 86.1,634.4C83.2,633.8 83,633.4 83,629.6C83,625.1 81.7,623 78.8,623C76.5,623 75,626 75,630.4C75,633 74.5,634 73,634.5C70.5,635.3 70.4,639 72.9,639.7C74.5,640.1 74.8,641.5 75.3,651.3C75.7,661.4 76,662.6 78.1,664.3C79.9,665.8 81.6,666.1 85.3,665.7C87.9,665.5 90.6,664.8 91.3,664.1ZM101.9,664.6C102.7,663.7 103,658.8 102.8,649.5C102.5,637.6 102.3,635.6 100.8,634.6C99.5,633.8 98.5,633.8 97.3,634.6C95.8,635.6 95.5,637.6 95.2,648.9C95.1,656.8 95.4,662.8 96,664C97.2,666.3 100.2,666.6 101.9,664.6ZM117.9,664.6C118.7,663.7 119,657.1 118.8,642.9L118.5,622.5L112.5,622.5L112.2,643.4C112,659.5 112.3,664.5 113.2,665.2C115.1,666.4 116.6,666.2 117.9,664.6ZM148.2,665C151.9,663.9 156,659.9 156,657.3C156,654.6 153.1,654.9 148.9,657.9C146.6,659.6 143.7,661 142.4,661C139.7,661 135.4,657.4 134.5,654.3C133.9,652 134,652 143.2,652C154.9,652 156.5,651.1 155.7,645C155.3,642 154.2,639.7 152.1,637.6C149.5,635 148.2,634.5 142.8,634.2C137.4,633.9 136,634.2 133,636.2C128.4,639.3 126.6,643.2 126.6,650C126.6,656.9 129,661.3 134.5,664C139,666.2 142.7,666.5 148.2,665ZM191.8,664.7C192.4,664 193.6,659.8 194.5,655.5C196.5,646 198.4,641.5 203.9,633.7C208.6,627.1 209.1,624.3 205.8,623.5C204.5,623.2 198.1,623.1 191.5,623.2C179.9,623.5 179.5,623.6 179.2,625.7C178.7,628.8 182.2,630 191.6,630L199.1,630L196.6,633.3C192.9,638.2 187.1,650.9 185.8,657.2C184.9,661.7 184.9,663.1 185.9,664.4C187.5,666.3 190.4,666.5 191.8,664.7ZM236,664C236.6,662.8 236.9,656.8 236.8,648.9C236.5,637.6 236.2,635.6 234.8,634.6C233.5,633.8 232.5,633.8 231.3,634.6C229.7,635.6 229.5,637.6 229.2,649.5C228.9,663.8 229.5,666 233.1,666C234.1,666 235.4,665.1 236,664ZM266.8,663.3C268.3,662.2 269.9,659.7 270.4,657.7C271.2,654.7 271,653.7 269.4,651.9C267.2,649.3 260.4,646.1 257.4,646C256.2,646 254.2,645.2 252.9,644.1C250.9,642.5 250.8,642 251.9,640.6C254,638.1 259.3,638.6 262,641.5C265.3,645 268.5,644.5 268.5,640.6C268.5,632.9 249,631.5 245,638.9C243.4,642 243.8,645.5 246.1,647.6C247.2,648.6 251.4,650.6 255.3,652C262.9,654.7 264.9,657.1 261.4,659.7C258.4,661.9 254.4,661.3 251.3,658C247.9,654.3 244,653.9 244,657.3C244,660.6 246.6,663.8 250.3,664.9C255.3,666.5 263.7,665.6 266.8,663.3ZM309.1,664.1C312,661.7 310.9,660.3 306,659.8L302.5,659.5L301.9,640.1L304.7,639.8C306.7,639.6 307.6,638.9 307.8,637.2C308.1,635.4 307.6,634.9 305.1,634.4C302.2,633.8 302,633.4 302,629.6C302,625.1 300.7,623 297.8,623C295.5,623 294,626 294,630.4C294,633 293.5,634 292,634.5C289.4,635.3 289.4,639 291.9,639.7C293.6,640.1 293.8,641.4 294.2,651.2C294.5,661.3 294.7,662.4 296.9,664.1C300,666.6 306.1,666.6 309.1,664.1ZM334.3,664.6C342.3,661.3 345.9,651.7 342.4,643.1C339.7,636.8 335.4,634 328,634C320.6,634 316.3,636.8 313.6,643.1C307.9,657 320.8,670.3 334.3,664.6ZM443,665C444.2,664.3 444.6,660.8 444.8,646.8C445,637.3 444.9,628.1 444.5,626.4C443.6,621.3 441.2,621.3 436.5,626.3C434.3,628.7 430.5,631.7 428.2,632.9C424.8,634.6 423.9,635.6 424.2,637.3C424.6,640.4 427.9,640.5 432.3,637.5C434.4,636.1 436.3,635 436.5,635C436.8,635 437,641.4 437,649.3C437,665.5 438,668.2 443,665ZM552.4,664.4C553.6,663.2 554,660.8 554,654.5C554,649.9 554.5,644.9 555.2,643.5C556.4,640.9 557,640.7 563.1,641C567.6,641.2 568.9,638.9 566,636C563.3,633.3 557.9,633.4 555.4,636.1L553.6,638.1L552.8,636.1C551.9,633.6 547.5,633.2 546.6,635.6C545.4,638.6 545.9,663.5 547.2,664.8C548.8,666.4 550.5,666.3 552.4,664.4ZM578.9,664.6C579.7,663.7 580,658.8 579.8,649.5C579.5,637.6 579.3,635.6 577.8,634.6C576.5,633.8 575.5,633.8 574.3,634.6C572.8,635.6 572.5,637.6 572.2,648.9C572.1,656.8 572.4,662.8 573,664C574.2,666.3 577.2,666.6 578.9,664.6ZM632,665C633.1,664.3 633.6,661.3 634,653.5C634.6,641.8 635.5,640 641.2,640C645.1,640 646,642.4 646,653C646,662.8 647,666 649.9,666C653.6,666 654.2,663.7 653.8,651C653.5,639.1 653.4,638.8 650.7,636.4C647,633.3 640.4,633.1 636.6,636.1L634,638.1L634,632.6C634,624.7 632.7,621.8 629.2,622.2L626.5,622.5L626.2,642.9C626,663.1 626.4,666 629.4,666C630,666 631.2,665.5 632,665ZM677.4,665C679,664.4 680,663.3 680,662C680,660.4 679.3,660 676.7,660C671.7,660 671,658.6 671,648.8C671,640.2 671.1,640 673.4,640C676.7,640 678.7,637.5 677,635.5C676.3,634.7 674.7,634 673.4,634C671.2,634 671,633.6 671,629.8C671,624.4 669.9,622.7 666.9,623.2C664.8,623.5 664.5,624.1 664.2,628.7C663.9,633.2 663.6,633.9 661.5,634.4C658.1,635.3 658.2,638.7 661.5,640C663.9,640.9 664,641.2 664,651.3C664,661.7 664.7,664.1 668,665.3C670.5,666.2 674.7,666.1 677.4,665ZM848.2,663.5L849.3,661L851.6,663.1C856.8,667.9 866.6,665.8 870.2,659C872.4,654.7 872.6,645.1 870.5,641C867,634.2 858.9,631.9 852.3,636L849,638L849,631.9C849,625 847.8,622 845,622C841.6,622 841,625.2 841,644C841,654.6 841.4,662.9 842,664.1C843.5,666.8 846.8,666.5 848.2,663.5ZM901.8,663.3C906.8,659.6 908.5,656.3 908.5,650.2C908.5,639.9 902.6,634 892.5,634C886,634 881.5,636.8 879,642.3C873.4,654.5 881.5,666.8 894.3,665.7C897,665.5 900.3,664.4 901.8,663.3ZM930.4,665C932,664.4 933,663.3 933,662C933,660.4 932.3,660 929.5,660C925,660 924,657.7 924,647.4C924,640.3 924.1,640 926.4,640C929.7,640 931.7,637.5 930,635.5C929.3,634.7 927.7,634 926.4,634C924.2,634 924,633.6 924,629.8C924,624.4 922.9,622.7 919.9,623.2C917.9,623.4 917.4,624.3 916.7,628.4C916.2,631.5 915.2,633.9 913.9,634.8C911.5,636.5 911.4,639 913.9,639.7C915.5,640.1 915.8,641.5 916.3,650.3C916.6,655.9 917.2,661.3 917.6,662.3C918.8,665.6 925.3,667 930.4,665ZM953.1,664.1C956,661.7 954.9,660.3 950,659.8L946.5,659.5L945.9,640.3L949,639.7C953.2,638.8 953.2,635.2 949,634.4C946.4,633.8 946,633.3 946,630.3C946,626 944.4,623 942.2,623C939.3,623 938,625.1 938,629.5C938,632.7 937.6,633.7 935.8,634.5C934.5,635.1 933.5,636.2 933.5,637C933.5,637.8 934.5,638.9 935.8,639.5C937.9,640.4 938,641 938,651.2C938,661.5 938.1,661.9 940.6,663.9C944,666.6 950,666.7 953.1,664.1ZM978.9,664.2C988.4,659.4 990.3,645.5 982.5,638C979.4,635 978.2,634.5 972.7,634.2C967.5,633.9 966,634.2 963,636.2C953.1,642.8 953.9,659.3 964.3,664.1C969.6,666.4 974.5,666.5 978.9,664.2ZM999.9,665.1C1000.9,664.4 1001.5,661.1 1001.9,653.7C1002.6,642.3 1003.6,640 1008,640C1011.6,640 1012,641.2 1012,653C1012,663 1013,666 1016.4,666C1018.9,666 1019.7,663.4 1020.3,653.7C1020.7,646.3 1021.3,643.3 1022.6,641.9C1024.5,639.7 1028.5,639.4 1029.7,641.3C1030.1,641.9 1030.7,647.4 1031,653.4C1031.4,662.3 1031.8,664.5 1033.3,665.4C1034.5,666.2 1035.5,666.2 1036.8,665.4C1038.2,664.5 1038.5,662.5 1038.8,652.9C1039,646.3 1038.6,640.5 1038,638.9C1035.9,633.9 1027.4,632.3 1022.7,636.1L1020.1,638.1L1017.1,635.9C1014.7,634.2 1013.2,633.8 1009.5,634.2C1007,634.5 1004.1,635.5 1003,636.5C1001.3,638.1 1001.1,638 1000.5,636C1000,634.4 999.2,634 997.2,634.2L994.5,634.5L994.2,648.9C993.9,665.2 994.9,668.2 999.9,665.1ZM1105.4,665.4C1106.5,665 1107,663.5 1107,660.4C1107,656.4 1107.2,656 1109.5,656C1112.4,656 1114.6,652.7 1112.7,651.2C1112.1,650.7 1110.6,650 1109.5,649.8C1107.6,649.5 1107.5,648.6 1107.2,637.1C1106.8,617 1104.8,616.9 1090.5,636.1C1076.6,654.6 1076.7,656 1091.2,656L1100,656L1100,659.8C1100,664.9 1101.8,666.8 1105.4,665.4ZM747.9,663.6C748.5,662.9 748.8,661.5 748.4,660.7C747.7,658.8 744.3,658.1 735,657.7L728.6,657.5L735.7,651.5C747.5,641.5 750.3,635.2 746,628.3C742.4,622.3 734.3,620.4 726.7,623.8C720.4,626.6 716.9,633.5 720.2,636.8C722.3,638.9 723.9,638.1 726,634C727.2,631.7 729.2,629.4 730.5,628.8C735.8,626.4 741,630.8 739.6,636.5C739.2,638.1 735,643 729.4,648.3C719.9,657.4 717.8,660.8 720,663.5C721.7,665.6 746.2,665.7 747.9,663.6ZM513,659L513,648L524,648L524,640L513,640L513,628.9L509.3,629.2L505.5,629.5L504.9,639.9L494.5,640.5L494.2,644.3L493.9,648L505,648L505,652.8C505,658.6 505.3,659 509.7,659L513,659ZM808.8,653.3L809.1,648L820.1,648L819.8,644.3L819.5,640.5L809.1,639.9L808.5,629.5L804.8,629.2L801,628.9L801,640L790,640L790,648L801,648L801,659.1L804.8,658.8L808.5,658.5L808.8,653.3ZM101.1,629C105.4,626.6 102,620.8 97.5,622.8C94.6,624.1 94.2,627.4 96.8,628.9C98.9,630.2 98.8,630.2 101.1,629ZM235.5,628.4C237.4,626.4 237.1,624.1 234.8,622.6C231,620.3 227,626.1 230.6,628.7C232.9,630.4 233.5,630.3 235.5,628.4ZM578.1,629C582.4,626.6 579,620.8 574.5,622.8C571.6,624.1 571.2,627.4 573.8,628.9C575.9,630.2 575.8,630.2 578.1,629ZM357.4,596.9C357.7,595.2 358,591.7 358,589.2L358,584.7L360.4,586.9C365.2,591.5 373.8,590 378.3,583.9C381.1,580 381.7,569.6 379.3,565.1C375.5,557.8 367,555.4 361,559.9C357.6,562.4 357,562.5 357,560.6C357,558.2 354.4,556.7 352.1,558C350.1,559 350,559.9 350,579C350,595.7 350.2,599.1 351.6,600.4C353.8,602.6 356.6,600.9 357.4,596.9ZM418.6,598.5C419.6,596.1 417.1,594 413.4,594L410,594L410.2,572.8L410.5,551.5L414.3,551.2C418.7,550.8 420.3,548.4 417.5,546.4C415,544.5 408,544.6 405.2,546.6C403,548.1 403,548.4 403,572.9C403,590.8 403.3,597.9 404.2,598.8C406,600.6 417.9,600.4 418.6,598.5ZM470.8,598.8C471.7,597.9 472,590.6 472,572.3L472,547L469.4,546C465.5,544.5 459.3,544.8 457.5,546.6C455.1,549 456.2,550.4 460.6,551L464.5,551.5L464.8,572.8L465,594L461.6,594C457.8,594 455.6,595.9 456.6,598.4C457.1,599.6 458.6,600 463.4,600C466.9,600 470.1,599.5 470.8,598.8ZM782.4,598.4C783.4,595.9 781.2,594 777.4,594L774,594L774,551L777.9,551C782.3,551 783.8,549 781.4,546.5C779.7,544.8 773.4,544.5 769.6,546L767,547L767,572.3C767,590.6 767.3,597.9 768.2,598.8C768.9,599.5 772.1,600 775.6,600C780.4,600 781.9,599.6 782.4,598.4ZM834.8,598.8C835.7,597.9 836,590.8 836,572.9C836,552.2 835.8,548 834.5,547C832.3,545.2 824.7,544.6 822.1,546C818.6,547.8 819.9,550.4 824.5,551L828.5,551.5L828.8,572.8L829,594L825.6,594C821.9,594 819.4,596.1 820.4,598.5C821.1,600.4 833,600.6 834.8,598.8ZM90.8,587.7C93.2,585.3 91.5,582.6 88.1,583.3C83.8,584.2 83,582.6 83,572.9L83,564.2L86.1,563.5C90.2,562.6 89.9,558.7 85.8,558.2C83.3,557.9 83,557.5 83,554C83,548.6 82.2,547 79.4,547C76.6,547 75,549.6 75,554.3C75,556.9 74.5,557.9 73,558.3C70.5,559 70.4,562.6 72.9,563.3C74.5,563.7 74.8,565.1 75.2,574.1C75.8,585.8 76.4,587.8 79.4,589.1C82.3,590.3 88.9,589.5 90.8,587.7ZM101.4,588.4C102.7,587.2 103,584.3 103,573C103,560.3 102.8,559 101.1,558C98.6,556.7 98.4,556.7 96.6,558.6C94.3,560.9 94.3,586.1 96.6,588.4C97.4,589.3 98.5,590 99,590C99.5,590 100.6,589.3 101.4,588.4ZM117.8,588.8C118.7,587.9 119,581.8 119,567.3C119,549.2 118.8,547 117.3,546.1C116.2,545.5 114.9,545.5 113.8,546.1C112.2,547 112,548.9 112,567.3C112,587.5 112.4,590 115.5,590C116.1,590 117.1,589.5 117.8,588.8ZM147.4,588.9C151.6,587.7 156,584 156,581.5C156,578.7 153.1,578.7 149.2,581.4C146.8,583.1 144.1,584 141.7,584C138.6,584 137.7,583.5 136,580.8C132.7,575.3 133,575.1 144.8,574.8L155.5,574.5L155.8,571C157,558.8 139.6,552.5 130.6,561.9C125.1,567.6 124.9,578.6 130.2,584.6C134.5,589.5 140.2,590.9 147.4,588.9ZM200.5,587.2C207.8,583 209.2,570.7 203.1,564.7C200.2,561.8 199.4,561.5 193.5,561.5C186.5,561.5 186.1,561.1 187.6,555.3C188.2,553.3 188.9,553.1 196.9,552.8C205.3,552.5 205.5,552.5 205.5,550C205.5,547.5 205.5,547.5 194.6,547.2C188.6,547.1 183.3,547.3 182.7,547.9C182.2,548.4 181,553 180,558.1C178.3,566.9 178.3,567.6 179.9,569.2C181.5,570.9 181.8,570.9 186.2,568.5C191.9,565.5 193,565.4 196.4,568.1C198.6,569.8 199,570.9 199,575.1C199,584.7 191.7,587.2 185,579.9C180.7,575.1 178,575.1 178,579.8C178,583.3 182,587.6 186.4,589C190.4,590.2 196.7,589.4 200.5,587.2ZM235.4,588.4C237.7,586.1 237.7,560.9 235.4,558.6C234.6,557.7 233.5,557 233,557C232.5,557 231.4,557.7 230.6,558.6C228.3,560.9 228.3,586.1 230.6,588.4C231.4,589.3 232.5,590 233,590C233.5,590 234.6,589.3 235.4,588.4ZM264,588.4C268.1,586.7 271,582.9 271,579.2C271,575.6 267.6,573 259.5,570.2C250.6,567.2 248.7,564.8 253.6,562.9C256.7,561.8 258.6,562.4 263,566C266.1,568.5 269,567.7 269,564.4C269,561.6 265.7,559.2 260,557.9C248.9,555.4 239.6,564.7 246.3,571.4C247.6,572.7 251.3,574.5 254.6,575.5C257.8,576.4 261.1,577.7 261.8,578.2C263.9,580 263.2,583 260.4,584.1C256.9,585.4 254.2,584.5 250.3,580.8C246.7,577.4 244,577.6 244,581.3C244,584.7 246,586.9 250.5,588.5C255.8,590.4 259.1,590.3 264,588.4ZM309.8,587.7C312.2,585.3 310.5,582.6 307.1,583.3C302.8,584.2 302,582.6 302,572.9L302,564.2L305.1,563.5C309.2,562.6 308.9,558.7 304.8,558.2C302.3,557.9 302,557.5 302,554C302,548.7 301.2,547 298.6,547C295.3,547 294,548.9 294,553.6C294,556.9 293.6,557.9 292,558.3C290.8,558.6 290,559.7 290,560.8C290,562 290.9,563.1 292,563.5C293.8,564.1 294,565.1 294.1,572.8C294.3,584.3 295,587.2 298,588.8C301,590.4 307.7,589.7 309.8,587.7ZM332,589.3C336.6,588.4 342.5,582.2 343.4,577.5C345.8,564.8 335.8,555 323.5,558.1C311.7,561.1 308,578.1 317.5,585.7C322.5,589.7 326,590.6 332,589.3ZM443.7,586.9C444.6,585.3 445,578.9 445,567.2C445,544.3 444,542.3 436,550.6C433.5,553.1 429.8,556.1 427.7,557.1C424.8,558.6 423.9,559.6 424.2,561.3C424.6,564.1 428.9,564 432.7,561.1C434.1,559.9 435.7,559 436.1,559C436.6,559 437,565.5 437,573.5C437,586.2 437.2,588 438.8,588.9C441.1,590.3 442.3,589.8 443.7,586.9ZM551.1,589C552.1,588.4 553,587.2 553,586.4C553,585.2 553.6,585.3 556,587C562.5,591.6 570.4,589.8 574.5,582.9C578.6,575.9 576.4,563.3 570.4,559.3C566.7,556.9 560,557.2 556.1,559.9L553,562.1L553,554.6C553,548.5 552.7,546.9 551.3,546.1C550.2,545.5 548.9,545.5 547.8,546.1C546.2,547 546,548.9 546,567.3C546,589.7 546.4,591.5 551.1,589ZM606.1,587.3C612.6,583.5 615.1,571.4 610.8,565C607.1,559.6 603.8,557.7 597.8,557.6C587.7,557.5 581.9,563.3 581.9,573.5C581.9,580.7 584.2,584.8 590,587.8C595.1,590.5 601.1,590.3 606.1,587.3ZM636.8,587.6C638.1,586.3 638.1,585.8 637,584.5C636.3,583.6 634.7,583 633.6,583.1C629,583.4 629,583.4 629,573.6L629,564.2L632.1,563.1C636,561.8 635.8,558.6 631.7,558.2C629.2,557.9 629,557.5 629,553.6C629,548.9 627.7,547 624.4,547C621.9,547 621,548.7 621,553.8C621,556.7 620.5,557.8 618.8,558.5C615.6,560 615.5,561.8 618.4,563.1C620.9,564.3 621,564.6 621,573.6C621,584.1 622,587.6 625.2,589C628.3,590.3 634.9,589.5 636.8,587.6ZM657.8,587.7C660.2,585.3 658.5,582.6 655.1,583.3C650.8,584.2 650,582.6 650,572.9L650,564.2L653.1,563.5C657.2,562.6 656.9,558.7 652.8,558.2C650.3,557.9 650,557.5 650,554C650,548.6 649.2,547 646.4,547C643.6,547 642,549.6 642,554.3C642,556.9 641.5,557.9 640,558.3C638.8,558.6 638,559.7 638,560.8C638,562 638.9,563.1 640,563.5C641.8,564.1 642,565.1 642.1,572.8C642.3,584.3 643,587.2 646,588.8C649,590.4 655.7,589.7 657.8,587.7ZM680,589.4C681.8,589 684.9,587.1 687,585.1C691.4,580.9 693,574.4 691.2,568.1C686.8,553.6 664.2,554.3 660.9,569C658,581.9 667.4,591.9 680,589.4ZM704,589C705.1,588.3 705.6,585.4 706,577.4C706.5,567.8 706.8,566.6 708.9,564.9C711.7,562.6 712.1,562.6 714.6,564.4C716.2,565.6 716.5,567.3 716.8,576.9C717.1,586.5 717.4,588.2 719,589C721.5,590.3 723.9,589.3 724.5,586.6C724.8,585.5 725.1,580.5 725.3,575.6C725.5,567.3 725.7,566.6 728.1,564.8C730.2,563.2 731.2,563 732.8,563.9C734.6,564.9 734.9,566.1 735.2,576C735.4,584.8 735.8,587.3 737.3,588.7C738.6,590.1 739.4,590.2 740.8,589.4C743.2,587.8 743.9,565 741.6,561.5C738.4,556.7 730.6,556.3 725.8,560.7C724.3,562 723.9,562 721.9,560.1C718.4,556.9 712.2,556.9 707.8,560.1C705.7,561.6 705,561.7 705,560.7C705,558.2 702.4,556.7 700.1,558C698.1,559 698,559.9 698,573.5C698,586.2 698.2,588 699.8,588.9C701.9,590.2 702.1,590.2 704,589ZM810.4,588.4C811.3,587.6 812,585.3 812,583.4C812,580.8 812.4,580 813.8,580C818.4,580 819.3,575.4 815,573.9L812,572.8L812,561.3C812,548.9 811.2,546 807.6,546C805.7,546 803.1,548.9 795,559.7C789.3,567.2 784.5,574.1 784.3,575C783.4,578.3 787.7,580 796.7,580L805,580L805,583.8C805,587.3 806.4,590 808.1,590C808.5,590 809.6,589.3 810.4,588.4ZM513,583L513,572L524,572L524,564L513,564L513,553L505,553L505,564L494,564L494,572L505,572L505,576.8C505,582.6 505.3,583 509.7,583L513,583ZM102.7,551.4C104.1,547.6 98.6,544.3 96.1,547.4C95.4,548.2 95.1,549.8 95.5,551C96.3,553.5 101.7,553.8 102.7,551.4ZM236.5,551C236.9,549.8 236.6,548.3 236,547.5C233.3,544.2 228.2,547 229.5,551C229.9,552.4 231,553 233,553C235,553 236.1,552.4 236.5,551ZM358.4,521.7C358.7,520.5 359,516.8 359,513.6L359,507.7L361.3,509.7C366.5,514.6 375.2,512.9 379.7,506.1C384,499.7 382.3,487.7 376.5,483.2C372.9,480.3 365.3,480.2 361.8,482.9C359.4,484.8 359.4,484.8 358.2,482.9C356.7,480.6 352.5,480.4 351.6,482.6C351.3,483.5 351,492.6 351,503C351,518.3 351.3,522.1 352.5,523.3C354.4,525.3 357.7,524.4 358.4,521.7ZM419.8,520.6C420.3,518.3 418.4,517 414.8,517L412,517L412,475L414.9,475C418.1,475 420.5,472.8 419.6,470.5C418.9,468.6 407,468.4 405.2,470.2C403.6,471.8 403.5,518.2 405.1,521.1C406,522.8 407,523.1 412.8,522.8C418.4,522.5 419.5,522.2 419.8,520.6ZM472.5,522.5L472.5,469.5L465.4,469.2C459.7,469 458.1,469.2 457.7,470.4C456.8,472.6 459.7,475 463.1,475L466,475L466,517L463.2,517C459.4,517 456.7,519.1 457.6,521.3C458.1,522.8 459.3,523 465.4,522.8L472.5,522.5ZM671,520.6C671,518.1 669.4,517 665.4,517L663,517L663,475L665.8,475C669.4,475 671.3,473.7 670.8,471.4C670.3,468.6 658.2,468 656.3,470.6C654.7,472.8 654.4,516.4 656,520.4C656.9,522.9 657.4,523 664,523C670.7,523 671,522.9 671,520.6ZM724,521.1C725.6,518.1 725.3,472.9 723.7,470.6C721.8,468 709.7,468.6 709.2,471.4C708.7,473.7 710.6,475 714.3,475L717,475L717,517L714.6,517C710.9,517 709,518 709,519.9C709,522.6 709.9,523 716.6,523C721.8,523 723.1,522.7 724,521.1ZM89.9,511.9C92.3,511 93,510.3 92.8,508.6C92.6,506.9 91.9,506.5 89.6,506.7C84.7,507.1 84,505.7 84,495.9C84,488 84.2,487 85.8,487C86.8,487 88.5,486.4 89.5,485.6C91.1,484.4 91.2,484 90.1,482.6C89.4,481.7 87.7,481 86.4,481C84.3,481 84,480.5 84,477.1C84,471.6 83.2,470 80.4,470C77.6,470 76,472.6 76,477.4C76,480 75.5,481 74,481.5C71.5,482.3 71.4,485.7 73.9,486.5C75.5,487 75.8,488.4 76.2,497.3C76.8,509.2 77.3,510.6 80.8,511.9C84.5,513.2 86.1,513.2 89.9,511.9ZM102.3,511.7C103.9,510.6 104,508.7 103.8,496L103.5,481.5L101.1,481.2C96.9,480.6 96,483.2 96,496.5C96,505.8 96.4,509.1 97.6,510.8C99.4,513.3 100,513.5 102.3,511.7ZM118.9,511.6C119.7,510.7 120,504.1 119.8,489.9L119.5,469.5L113.5,469.5L113.2,489.9C113,510.3 113.3,513 116.5,513C117.2,513 118.3,512.4 118.9,511.6ZM149.2,512C152.9,510.9 157,506.9 157,504.3C157,501.8 154.2,501.8 150.8,504.3C149,505.7 146.5,507.1 145.4,507.4C142,508.4 138,506.3 136.5,502.8L135.2,499.5L145.3,498.9C158.3,498 159.4,497 155.8,487.8C153.5,481.8 142.4,478.8 135.4,482.2C129.4,485 126,493.7 128,501C130.5,510.3 139.1,514.8 149.2,512ZM200.9,510.7C204.7,508.9 208,503.3 208,498.9C208,495.9 207.3,494.3 204.6,491.7L201.3,488.4L203.6,485.6C210.6,477.5 201.6,467.2 189.6,469.4C184.7,470.3 179.8,475.2 180.2,478.7C180.7,482.8 184,482.8 186.5,478.7C190,473.2 198,473.9 198,479.8C198,483 195.3,486 192.4,486C188.6,486 187,487.1 187,489.6C187,491.7 187.5,492 190.6,492C194.2,492 197.9,493.5 199.2,495.4C200.7,497.6 200,502.4 197.8,504.7C193.9,508.8 188.9,507.6 185.9,501.9C183.9,497.8 181.2,496.9 179.1,499.4C176.5,502.5 182.5,510.7 188.5,512.3C191.2,513 197.8,512.2 200.9,510.7ZM236.1,512C237.8,511 238,509.8 238,497.5C238,490.2 237.7,483.5 237.4,482.6C236.6,480.5 231.4,480.5 230.6,482.6C230.3,483.5 230,489.9 230,497C230,507.4 230.3,510.2 231.6,511.4C233.4,513.3 233.6,513.3 236.1,512ZM263.5,512C271.2,510.2 274.5,502.4 269.6,497.5C268.3,496.2 265.3,494.6 262.9,494C252.3,491.1 250.2,489.2 254.6,486.4C257.3,484.6 259.2,485.1 264,489C267.2,491.5 270,490.8 270,487.4C270,483.6 264.8,481 257.2,481C251.5,481 250.5,481.3 247.9,483.9C242.2,489.7 245.2,495.4 255.6,498.6C258.8,499.6 262.1,500.8 262.8,501.3C264.6,502.7 264.3,505.8 262.1,507C258.7,508.8 256.1,508.1 252.1,504.5C247.9,500.7 245,500.6 245,504.4C245,508.4 251.4,512.7 257.5,512.9C258.6,512.9 261.3,512.5 263.5,512ZM310.8,510.6C313.1,508.3 311.5,505.7 308.4,506.4C304,507.6 303,505.7 303,496L303,487.3L306.1,486.6C308.6,486.1 309.1,485.6 308.8,483.8C308.6,482.1 307.7,481.4 305.8,481.2C303.3,480.9 303,480.5 303,477C303,471.6 302.2,470 299.4,470C296.6,470 295,472.6 295,477.3C295,479.9 294.5,480.9 293,481.3C290.5,482 290.4,485.7 292.9,486.5C294.5,487 294.8,488.4 295.2,498C295.7,509.3 296.4,511.5 300.3,512.3C303.8,513.1 309.2,512.2 310.8,510.6ZM337.9,510.2C342.9,506.5 344.5,503.2 344.5,496.6C344.5,486.3 339.2,481 329,481C321.7,481 317.5,483.6 314.8,489.7C311,498.3 314.9,508.8 323.1,511.7C327.4,513.3 334.8,512.5 337.9,510.2ZM444.4,511.4C445.7,510.1 446,506.8 446,491.4C446,467.4 444.9,465.1 437.3,473.4C435.1,475.8 431.4,478.8 429.1,480C425.8,481.6 424.9,482.6 425.2,484.3C425.6,487.4 428.6,487.6 433,484.6C435.2,483.2 437.2,482 437.5,482C437.8,482 438,488.5 438,496.5C438,509.2 438.2,511 439.8,511.9C442.1,513.3 442.6,513.3 444.4,511.4ZM553.4,511.4C554.7,510.1 555,506.8 555,490.6C555,477 554.7,471.1 553.8,470.2C552.1,468.5 548.3,468.7 547.6,470.6C547.3,471.5 547,480.6 547,491C547,506.8 547.3,510.1 548.6,511.4C549.4,512.3 550.5,513 551,513C551.5,513 552.6,512.3 553.4,511.4ZM583.2,512C589.6,510.2 594.4,502 589,502C588,502 586.6,502.7 585.9,503.7C583.4,506.6 578.1,508.3 575,507C572.6,506 570,502.4 570,500.1C570,499.6 574.2,499.1 579.4,498.8C585.2,498.6 589.4,497.9 590.4,497.1C592.7,495.2 592.4,490.9 589.7,486.9C586.8,482.5 583.1,480.8 576.9,480.8C567.6,480.9 562,486.9 562,496.5C562,501.3 564.1,507 566.6,509.1C568.4,510.6 574.9,512.9 577.5,513C578.6,513 581.2,512.5 583.2,512ZM606.1,512C607.8,511 608,509.8 608,499.1L608,487.3L611.1,486.6C613.6,486.1 614.1,485.6 613.8,483.8C613.6,482.1 612.7,481.4 610.8,481.2C608.7,480.9 608,480.3 608,478.6C608,475.5 609.9,474 613.8,474C616.7,474 617.1,473.7 616.8,471.8C616.5,469.8 615.8,469.5 611.2,469.2C604,468.8 601.3,470.6 600.5,476.5C599.9,479.9 599.3,481 598,481C597,481 595.7,481.7 595,482.5C593.4,484.4 595.3,487 598.1,487C599.8,487 600,487.9 600,498.4C600,507.5 600.3,510.2 601.6,511.4C603.4,513.3 603.6,513.3 606.1,512ZM633.9,511.9C636.3,511 637,510.3 636.8,508.6C636.6,506.9 635.9,506.5 633.6,506.7C628.7,507.1 628,505.7 628,496L628,487.3L631.1,486.6C633.6,486.1 634.1,485.6 633.8,483.8C633.6,482.1 632.7,481.4 630.8,481.2C628.3,480.9 628,480.5 628,477C628,471.6 627.2,470 624.4,470C621.6,470 620,472.6 620,477.3C620,479.9 619.5,480.9 618,481.3C616.8,481.6 616,482.7 616,483.8C616,485 616.9,486.1 618,486.5C619.8,487.1 620,488 620.1,495.8C620.1,506.4 621.6,511.2 625,512.1C628.8,513.1 630.4,513.1 633.9,511.9ZM704.7,510.4C706.1,506.7 703.7,505.5 694.4,505.2L685.5,504.9L694.6,496.2C701.9,489.2 703.9,486.8 704.4,483.8C705.2,479.2 703.1,473.8 699.6,471.5C696.1,469.2 689.1,468.5 684.7,470C678,472.2 673.5,480.7 677.4,483.9C679.5,485.6 681.5,484.3 683.4,480C687.1,471.6 698.8,474.6 696.6,483.3C696.3,484.7 694.1,487.6 691.8,489.7C680,500.3 676,504.8 676,507.1C676,511.5 677.5,512 691.2,512C702.2,512 704.2,511.8 704.7,510.4ZM514,506L514,495L525,495L525,487L514,487L514,476L507,476L507,486.9L501.3,487.2L495.5,487.5L495.5,494.5L501.3,494.8L507,495.1L507,506L514,506ZM103.7,474.4C104.5,472.3 102.8,469.6 100.5,469.1C97.9,468.6 95.8,471.7 97.1,474.1C98.3,476.4 102.8,476.6 103.7,474.4ZM237.7,474.4C239.1,470.6 233.6,467.3 231.1,470.4C230.4,471.2 230.1,472.8 230.5,474C231.3,476.5 236.7,476.8 237.7,474.4ZM146,393.1C149.6,391.9 154,390 155.8,388.9C157.6,387.9 159.7,387 160.4,387C162.2,387 173.2,375.2 177.5,368.7C183.2,360.1 186.3,349.9 186.4,340C186.5,330.2 185.7,323.2 184.2,320.4C182.6,317.6 178.7,308.6 178.8,308C178.9,307.3 167.3,295.1 163.5,292C161.8,290.6 157.6,288.2 154,286.5C150.4,284.9 147.3,283.2 146.9,282.8C145.8,281.2 126.2,280 99.3,280L71,280L71,289L98.8,289C129.6,289.1 137.9,289.8 146.2,292.9C158.1,297.5 169.4,308.7 174.1,320.8C176,325.4 176.4,328.5 176.4,337.5C176.5,347.2 176.2,349.4 173.6,356.3C172.1,360.5 170.3,364 169.7,364C169.1,364 168.9,364.2 169.2,364.5C170.4,365.8 157.4,378.2 152.6,380.5C139.9,386.4 140,386.4 104.3,386.8L71,387.2L71,396.2L105.3,395.8C137.9,395.5 139.8,395.3 146,393.1ZM261.7,394.6C265.4,393.8 269.9,392.5 271.5,391.7C273.2,390.8 276.5,389.3 279,388.2C283.6,386.1 290,380.1 296.1,372C300.8,365.8 301.9,363.7 304.7,355.5C307.1,348.7 307.2,347.4 307.7,314.3L308.2,280L298,280L298,312.3C298,347.9 297.4,352.5 291.5,362.6C288.1,368.4 278.1,378.4 273.1,381C263.2,386 260.4,386.3 225.3,386.8L192,387.2L192,396L223.4,396C247,396 256.6,395.6 261.7,394.6ZM437,396L437,387L322,387L322,396L437,396ZM566,396L566,387L450,387L450,396L566,396ZM692.7,360.3C692.3,322.5 691.9,319.1 686,309.5C684.6,307.3 683.6,305.2 683.7,304.8C683.9,304.4 682.9,303.3 681.5,302.4C680.1,301.5 679,300.2 679,299.5C679,296.5 659.8,284.1 652.5,282.4C650.9,282 649.2,281.2 648.8,280.6C648.3,279.8 637.3,279.5 612.8,279.5L577.5,279.5L577.2,284.3L576.9,289L608.5,289C633.2,289 641.6,289.3 646.8,290.5C658.8,293.2 670,301.4 676.7,312.2C678.7,315.5 680.5,318.7 680.7,319.4C680.8,320 681.6,323.2 682.5,326.5C683.6,331.2 684,339.2 684,363.8L684,395L693.1,395L692.7,360.3ZM824,395L824,279L815,279L815,395L824,395ZM437,289L437,280L322,280L322,289L437,289ZM955,288L955,279L839,279L839,288L955,288ZM435,263L435,254.2L401.3,253.8C378.7,253.6 366.8,253.1 365.5,252.3C364.4,251.7 361.4,250.4 358.9,249.6C350.2,246.5 338.6,236 334.1,227.2C326.1,211.4 327.3,190.8 337,177.9C345.7,166.3 357.6,158.9 370.6,157C374.4,156.5 390.4,156 406.3,156L435,156L435,146.8L400.8,147.3C363.9,147.7 363.5,147.8 351.3,153.5C341.6,158.1 330.5,169.1 326,178.7C324.2,182.4 322.4,186.3 321.9,187.3C319.8,191.3 318.8,205 320,213.2C320.6,217.6 321.5,222 322,222.9C322.4,223.8 324.2,227.6 326,231.3C330.4,240.7 340.9,251.2 351.1,256.2C363.7,262.4 365.7,262.7 405.3,262.9L435,263ZM562,263L562,254L534.8,254C500.5,254 493.2,253.2 483.5,248.5C475.2,244.6 465.8,235.7 461.6,228C456.5,218.6 456,214.2 456,179.3L456,147L445.9,147L446.3,179.8C446.5,197.8 446.9,213.4 447.2,214.5C447.5,215.6 448.3,218.4 448.9,220.8C453.2,236.7 464.4,249.6 480.3,257C491.5,262.3 494.9,262.7 532.3,262.9L562,263ZM718,263L718,147L708,147L708,263L718,263ZM824,263L824,147L815,147L815,263L824,263ZM849.2,228.8C849.7,190.5 850,188.6 856.8,178.6C861.9,171 871.8,162.7 878.8,160.1C888.1,156.6 895,156 925.8,156L955,156L955,147L923.6,147C888.1,147 882.8,147.7 871.4,153.4C859.2,159.7 846.2,174.5 842.9,186C842.2,188.5 841.2,191.1 840.6,191.9C839.9,192.8 839.4,205.4 839.1,228.2L838.8,263L848.8,263L849.2,228.8ZM981,263L981,147L971,147L971,204.3C971,235.9 971.3,262 971.7,262.3C972,262.7 974.3,263 976.7,263L981,263ZM139,260.6C142.6,259.8 146.9,258.6 148.5,257.9C150.2,257.2 151.7,256.6 152,256.6C152.3,256.5 154,255.5 155.8,254.2C157.5,252.9 159,252.2 159,252.6C159,253.9 167.7,245 172,239.5C180.4,228.5 183.3,220.2 183.6,205.2C183.9,193.8 181.7,184.4 176.7,175.9C175.2,173.4 174.2,171.1 174.5,170.8C175.2,170.2 166.6,162.2 160.5,157.8C153.9,153.1 150.3,151.4 141.2,148.3C133.4,145.8 126.2,145.6 115,147.6C108.6,148.7 97.2,154.1 92.7,158.1C90.2,160.2 87.8,162 87.3,162C86.2,162.1 79.1,171.3 75.9,176.9C71.2,185.1 69.6,192.3 69.7,205C69.8,213.5 70.3,217.9 71.7,222C77.3,238.4 89.5,251.3 105.4,257.8C116.2,262.1 127.4,263.1 139,260.6ZM269,258.9C273.1,257.7 277.4,255.9 278.5,255C279.6,254.1 281.7,252.8 283.2,252C289.2,249.1 300.6,233.8 303.5,224.9C304.5,221.9 305.8,219.2 306.4,218.8C307.2,218.3 307.5,207.3 307.5,182.3L307.5,146.5L302.8,146.2L298,145.9L298,178.9C298,211.5 298,212 295.5,219.9C293.6,226 291.7,229.5 288.1,233.8C276.7,247.5 266.3,252.5 249.5,252.5C234.8,252.5 225,248.3 214.6,237.5C209.5,232.2 207,228 203.7,219C201.8,213.9 201.6,210.8 201.2,179.8L200.8,146L191.8,146L192.3,180.8C192.7,218.4 192.8,218.8 198.7,230.5C204.7,242.1 212.1,249.5 224.1,255.8C228.8,258.3 231.8,259.3 240.5,261.4C245.3,262.5 261.8,261.1 269,258.9ZM587.3,227.8C587.9,189.6 588.1,187.9 594.8,178C598.4,172.8 611.8,160.5 612.8,161.5C613.1,161.8 614.1,161.3 614.9,160.5C619.5,156.4 636.9,154.8 647.3,157.5C660.4,160.9 672.5,170.3 677.7,181.2C683.4,193.1 683.3,192.3 683.8,228.3L684.2,262L693.2,262L692.7,227.3C692.3,189.2 691.8,186 685.7,176.2C684.2,173.9 683.3,172 683.7,172C684.1,172 683.1,170.8 681.4,169.3C679.8,167.7 677.8,165.6 677,164.5C673.7,160 663.3,153.2 655,150.1C634.4,142.2 609.1,148.1 593.8,164.4C589.1,169.3 582.7,180 581,185.5C580.3,187.7 579.2,190.1 578.6,190.9C577.9,191.9 577.4,203.4 577.1,227.2L576.8,262L586.8,262L587.3,227.8Z" style="fill:rgb(211,160,80);fill-rule:nonzero;"/>
                <path d="M116,251.6C97.1,247.4 81.7,230.6 78.8,210.9C76,191.9 85.3,172.7 102.3,162.8C113.9,156.1 126.5,154.3 139.4,157.6C154.2,161.4 167.6,174 172.5,189C174.8,195.8 175.1,210.4 173.1,217.5C170.9,225.3 166.1,233 159.5,239.3C154.4,244.3 148.2,248.6 144.5,249.7C133.7,253 124.8,253.6 116,251.6Z" style="fill:rgb(211,160,80);fill-rule:nonzero;"/>
                <path d="M172.4,169.8C172,169.1 172.1,169 172.8,169.4C174,170.1 174.4,171 173.6,171C173.3,171 172.8,170.5 172.4,169.8Z" style="fill:rgb(211,160,80);fill-rule:nonzero;"/>
                <path d="M0,900L0,0L1200,0L1200,900L0,900ZM424.4,752.5C426.8,750 425.3,748 420.9,748L417,748L417,705.1L420.8,704.8C424,704.5 424.5,704.2 424.5,702C424.5,699.6 424.2,699.5 418.5,699.2C415.2,699.1 411.8,699.4 411,700C409.8,700.8 409.4,704.6 409.2,722.2C408.8,747.3 409.2,751.8 412.3,753C415.9,754.4 422.7,754.1 424.4,752.5ZM778.8,752.4C781,750.9 781,750.6 781,726.6C781,708.6 780.7,701.9 779.7,700.6C777.8,698 765.7,698.6 765.2,701.4C764.7,703.7 766.6,705 770.3,705L773,705L773,748L769.5,748C765.3,748 763.7,750.5 766.5,752.6C769,754.5 776,754.4 778.8,752.4ZM88.1,741.1C91,738.7 89.9,737.3 85,736.8L81.5,736.5L80.9,717.3L84,716.7C88.2,715.8 88.2,712.4 84,711.5C81.4,710.9 81,710.4 81,707.4C81,703 79.5,700 77.2,700C74.3,700 73,702.1 73,706.7C73,709.9 72.5,711.2 71.3,711.7C70.3,712.1 69.2,712.8 68.8,713.4C67.9,714.7 69.8,717 71.6,717C72.7,717 73,719.3 73,727.5C73,737.4 73.2,738.2 75.5,740.5C78.6,743.6 84.7,743.9 88.1,741.1ZM100,741C100.6,739.8 100.9,733.8 100.8,725.9C100.5,714.6 100.2,712.6 98.8,711.6C97.5,710.8 96.5,710.8 95.3,711.6C93.7,712.6 93.5,714.6 93.2,726.5C92.9,740.8 93.5,743 97.1,743C98.1,743 99.4,742.1 100,741ZM115.9,741.6C116.7,740.7 117,734.2 116.8,720.5C116.5,702.9 116.3,700.6 114.8,699.6C113.5,698.8 112.5,698.8 111.3,699.6C109.7,700.6 109.5,702.9 109.2,719.9C109.1,732 109.3,739.8 110,741C111.2,743.3 114.2,743.6 115.9,741.6ZM148,741.1C152.5,738.8 154.5,735.1 152.5,733.1C151.3,731.9 150.6,732 147.8,734.2C143.3,737.6 140.4,738.4 137.1,737C134.5,736 132,732.4 132,730C132,729.4 135.8,729 140.4,729C151.5,729 154,728 154,723.8C154,709.6 132.4,706 125.7,719C123.3,723.7 123.8,732.5 126.8,736.7C131.1,742.8 141,744.9 148,741.1ZM196,741.1C196.6,739.9 197,731.5 197,720.6C197,705.1 196.7,701.9 195.4,700.6C193.6,698.7 192.2,699.3 188.6,703.7C187.1,705.5 183.6,708.2 180.9,709.6C177.7,711.4 176,713 176,714.2C176,717.4 179.1,717.5 184.2,714.7L189,712L189,726.3C189,741 189.5,743 193.2,743C194.1,743 195.4,742.1 196,741.1ZM233.1,740.8C238.1,738 241.5,731.5 240.6,726.2C239.9,721.7 237.3,718.1 233,715.6C230.2,713.9 229,713.8 224.8,714.7L219.8,715.7L220.4,712.7C220.7,711.1 221,709.1 221,708.4C221,707.3 222.8,707 228.8,707C237.6,707 239.3,706.3 238.8,702.9C238.5,700.6 238.2,700.5 227.9,700.2C219.7,700 217,700.3 216.1,701.4C215.5,702.1 214.2,706.9 213.3,711.9C211.8,720.5 211.8,721.2 213.4,722.8C215,724.4 215.3,724.4 219,722.3C224.3,719.2 228.3,719.3 230.9,722.6C234.4,727.1 233,734.2 228.1,736.6C224.9,738.3 220.2,736.5 218.1,732.9C216.2,729.5 214.2,728.6 212.4,730.1C210.6,731.6 210.6,734 212.6,736.9C216.9,743 226,744.8 233.1,740.8ZM268.8,741.8C270.1,740.5 270.6,715.6 269.4,712.6C268.5,710.4 264.3,710.6 263,712.9C261.7,715.4 261.7,737 263,740.4C264,743.2 266.8,743.8 268.8,741.8ZM297.3,742.1C306.9,738.4 305.8,726.6 295.7,724.4C288.6,722.9 284.9,720.8 285.2,718.6C285.7,715.3 291.8,715.1 295,718.5C297.7,721.3 300.2,721.7 302,719.5C303.8,717.3 301,713.5 296.4,712C287.3,709 277.7,713.1 277.7,720.1C277.7,724.2 280.1,726.2 288.5,729C295.7,731.4 298,733.9 295.4,736.4C292.8,739.1 288.4,738.3 284.2,734.6C281.3,731.9 280.1,731.4 278.7,732.1C275.2,734.1 277.9,739.7 283.5,742C286.2,743.2 294.3,743.2 297.3,742.1ZM342.4,740.9L346.2,738.9L348.7,741.2C350.6,743 351.4,743.2 352.8,742.3C353.8,741.7 354.4,740.2 354.3,738.9C354.1,737.6 353.8,732.2 353.4,727C353.1,721.8 352.4,716.5 351.8,715.3C348.7,709 329.9,709.8 326.9,716.4C324.3,722.1 328.8,724 333.2,719C336.7,715 342.2,714.8 344.6,718.6C346.8,721.9 345.9,722.6 337.6,724.4C327,726.6 323.6,730.3 325.4,737.6C326.7,742.8 335.7,744.5 342.4,740.9ZM369,741.1C369.6,739.9 370,731.6 370,721C370,710.4 369.6,702.1 369,700.9C367.8,698.8 365,698.4 363.2,700.2C361.5,701.9 361.5,740.1 363.2,741.8C365,743.6 367.8,743.2 369,741.1ZM384.9,741.6C385.7,740.7 386,734.2 385.8,720.5C385.5,702.9 385.3,700.6 383.8,699.6C382.5,698.8 381.5,698.8 380.3,699.6C378.7,700.6 378.5,702.9 378.2,719.9C378.1,732 378.3,739.8 379,741C380.2,743.3 383.2,743.6 384.9,741.6ZM449.8,741.8C450.7,740.9 451,734.9 451,720.9C451,696.7 450.7,696 442.7,703.7C439.8,706.5 436.1,709.5 434.3,710.4C430.5,712.3 429.8,713.3 430.6,715.4C431.5,717.7 435,717.4 439.3,714.5L443,711.9L443,724.9C443,732 443.4,739 444,740.4C445,743.2 447.8,743.8 449.8,741.8ZM654.8,741.8C655.5,741.1 656,738.9 656,736.9C656,733.5 656.3,733.1 658.8,732.8C660.9,732.6 661.5,732 661.5,730C661.5,728 660.9,727.4 658.8,727.2L656,726.9L656,714.1C656,700.6 655.3,698.4 651.3,699.2C650.3,699.4 644.6,706 638.7,713.9C628.6,727.3 628,728.3 629.3,730.4C630.6,732.2 631.8,732.5 639.9,732.8L649,733.1L649,737.4C649,739.7 649.3,742 649.7,742.3C650.7,743.4 653.5,743.1 654.8,741.8ZM753.5,741.4C758.3,739.1 760.2,736.6 760.7,731.7C761.3,726.6 759.1,721.5 755.9,720.5C753.8,719.8 753.8,719.8 756.4,717.1C760.2,713.2 760.6,709.2 757.8,705C753.3,698.3 741.5,697.3 735.8,703.1C731.8,707 731.7,713 735.4,716.8L737.7,719.1L734.3,722.5C730.4,726.4 729.9,731.6 732.9,736.6C736.5,742.5 746.4,744.8 753.5,741.4ZM559.5,739C559.5,736.5 559.4,736.5 550.3,736.2C545.2,736.1 541,735.6 541,735.2C541,734.8 544.8,730.9 549.4,726.5C555.7,720.5 558.1,717.5 558.9,714.6C560.7,707.7 556.7,701.6 549.1,699.9C539.6,697.8 530.6,703.3 531.2,710.8C531.4,713.7 532,714.6 533.6,714.8C535.2,715 536.2,714.2 537.4,711.5C540.8,704.4 547.5,703.2 550.9,709.1C553,712.8 550.4,717.2 541.1,725.2C532.7,732.4 529.5,737.2 531.1,740.2C532,741.9 533.4,742 545.8,741.8L559.5,741.5L559.5,739ZM498,736L498,725L509,725L509,718.1L503.8,717.8L498.5,717.5L498.2,711.8L497.9,706L491.1,706L490.8,711.8L490.5,717.5L485.3,717.8L480,718.1L480,725L491,725L491,736L498,736ZM599,736L599,725L610,725L610,718L599.1,718L598.8,712.3C598.5,706.6 598.5,706.5 595.3,706.2L592.1,705.9L591.5,717.5L585.8,717.8L580,718.1L580,724.9L585.8,725.2L591.5,725.5L591.8,730.8L592.1,736L599,736ZM699.2,730.8L699.5,725.5L705.3,725.2L711,724.9L711,718.1L705.3,717.8L699.5,717.5L699.2,711.8L698.9,706L692.1,706L691.8,711.8L691.5,717.5L686.3,717.8L681,718.1L681,725L692,725L692,736L698.9,736L699.2,730.8ZM99.4,705.4C100.3,704.6 101,703.5 101,703C101,702.1 98.2,699 97.4,699C95.7,699 93,701.3 93,702.8C93,706.6 96.7,708.1 99.4,705.4ZM269.4,704.8C270.7,702.7 269.2,699.7 266.8,699.2C265.2,698.9 262,701.5 262,703C262,704.5 265.2,707.1 266.8,706.8C267.6,706.6 268.8,705.7 269.4,704.8ZM356,676.5C356.7,675.7 357.5,672.1 357.7,668.6L358.3,662.2L362.2,664.2C369.3,667.9 377.4,664.3 380.1,656.2C381.6,651.8 380.7,643 378.4,639.5C374.8,634 367.1,632.4 361.2,636C357.2,638.4 357.4,638.4 356.7,636C356.1,633.6 351.5,633.2 350.6,635.6C349.4,638.7 349.9,675.5 351.2,676.8C352.8,678.4 354.5,678.3 356,676.5ZM611.7,675.7C613.3,674.8 615.2,672.9 616,671.3C617.7,667.6 618.6,640.6 617.1,636.8C615.9,633.5 612.6,633.1 610.8,635.9C609.7,637.7 609.6,637.7 606.6,635.9C604.9,634.9 601.6,634 599.4,634C592,634 587,640 587,649C587,658.6 590.9,663.9 598.5,664.8C602.2,665.2 603.7,664.8 606,663.1C607.6,662 609.2,661 609.6,661C611,661 609.1,669.5 607.4,670.7C606.4,671.4 603.8,672 601.5,672C598.3,672 596.8,671.4 595,669.5C592.2,666.5 588.6,666.5 588.2,669.5C587.2,676.4 602.5,680.4 611.7,675.7ZM417.1,676C421,673.8 418.1,670 412.6,670L410,670L410,628L413.3,628C417.4,628 419.3,626.8 418.8,624.4C418.5,622.8 417.4,622.4 412.2,622.2C408.3,622 405.3,622.4 404.4,623.1C403.3,624 403,628.9 403,648.9C403,662.4 403.4,674 403.8,674.6C405.2,676.9 413.8,677.7 417.1,676ZM469.4,676L472,675L472,649.7C472,631.4 471.7,624.1 470.8,623.2C470.1,622.5 466.9,622 463.4,622C458.6,622 457.1,622.4 456.6,623.6C455.6,626.1 457.8,628 461.6,628L465,628L465,670L462.4,670C457,670 454,673.7 457.8,675.9C460,677.2 466.1,677.3 469.4,676ZM713.1,676C717,673.8 714.1,670 708.6,670L706,670L706,628L709.4,628C713.2,628 715.4,626.1 714.4,623.6C713.9,622.4 712.4,622 707.6,622C704.1,622 700.9,622.5 700.2,623.2C699.3,624.1 699,631.4 699,649.7L699,675.1L701.3,676C704.4,677.2 710.7,677.2 713.1,676ZM765.8,675.4C768,673.9 768,673.6 768,649.6C768,631.6 767.7,624.9 766.7,623.6C764.8,621 752.7,621.6 752.2,624.4C751.7,626.7 753.6,628 757.3,628L760,628L760,649C760,669.6 760,670 757.9,670C752.9,670 750.2,673.8 753.8,675.9C756.4,677.5 763.3,677.2 765.8,675.4ZM1075.8,676.4C1077.3,676 1078,675 1078,673.4C1078,671.4 1077.4,670.9 1074,670.4L1070,669.7L1070,628.1L1073.8,627.8C1077,627.5 1077.5,627.2 1077.5,625C1077.5,622.6 1077.2,622.5 1071,622.2C1065.8,622 1064.3,622.2 1063.3,623.6C1061.7,625.8 1061.4,669.4 1062.9,673.4C1064.2,676.6 1069.9,677.9 1075.8,676.4ZM1130.3,675.1C1131.9,673.5 1132.6,628.6 1131.1,624.7C1130,622 1129.8,621.9 1123.3,622.2C1116.8,622.5 1116.5,622.6 1116.5,625C1116.5,627.2 1117,627.5 1120.3,627.8L1124,628.1L1124,669.7L1120,670.4C1116.6,670.9 1116,671.4 1116,673.4C1116,674.8 1116.6,676.1 1117.3,676.4C1119.4,677.3 1129,676.4 1130.3,675.1ZM91.3,664.1C93.2,662.2 90.8,659.4 87.5,659.8C85.9,660 84.4,659.6 83.9,658.8C83.4,658.1 83,653.6 83,648.8L83,640.1L85.8,639.8C87.7,639.6 88.6,638.9 88.8,637.2C89.1,635.4 88.6,634.9 86.1,634.4C83.2,633.8 83,633.4 83,629.6C83,625.1 81.7,623 78.8,623C76.5,623 75,626 75,630.4C75,633 74.5,634 73,634.5C70.5,635.3 70.4,639 72.9,639.7C74.5,640.1 74.8,641.5 75.3,651.3C75.7,661.4 76,662.6 78.1,664.3C79.9,665.8 81.6,666.1 85.3,665.7C87.9,665.5 90.6,664.8 91.3,664.1ZM101.9,664.6C102.7,663.7 103,658.8 102.8,649.5C102.5,637.6 102.3,635.6 100.8,634.6C99.5,633.8 98.5,633.8 97.3,634.6C95.8,635.6 95.5,637.6 95.2,648.9C95.1,656.8 95.4,662.8 96,664C97.2,666.3 100.2,666.6 101.9,664.6ZM117.9,664.6C118.7,663.7 119,657.1 118.8,642.9L118.5,622.5L112.5,622.5L112.2,643.4C112,659.5 112.3,664.5 113.2,665.2C115.1,666.4 116.6,666.2 117.9,664.6ZM148.2,665C151.9,663.9 156,659.9 156,657.3C156,654.6 153.1,654.9 148.9,657.9C146.6,659.6 143.7,661 142.4,661C139.7,661 135.4,657.4 134.5,654.3C133.9,652 134,652 143.2,652C154.9,652 156.5,651.1 155.7,645C155.3,642 154.2,639.7 152.1,637.6C149.5,635 148.2,634.5 142.8,634.2C137.4,633.9 136,634.2 133,636.2C128.4,639.3 126.6,643.2 126.6,650C126.6,656.9 129,661.3 134.5,664C139,666.2 142.7,666.5 148.2,665ZM191.8,664.7C192.4,664 193.6,659.8 194.5,655.5C196.5,646 198.4,641.5 203.9,633.7C208.6,627.1 209.1,624.3 205.8,623.5C204.5,623.2 198.1,623.1 191.5,623.2C179.9,623.5 179.5,623.6 179.2,625.7C178.7,628.8 182.2,630 191.6,630L199.1,630L196.6,633.3C192.9,638.2 187.1,650.9 185.8,657.2C184.9,661.7 184.9,663.1 185.9,664.4C187.5,666.3 190.4,666.5 191.8,664.7ZM236,664C236.6,662.8 236.9,656.8 236.8,648.9C236.5,637.6 236.2,635.6 234.8,634.6C233.5,633.8 232.5,633.8 231.3,634.6C229.7,635.6 229.5,637.6 229.2,649.5C228.9,663.8 229.5,666 233.1,666C234.1,666 235.4,665.1 236,664ZM266.8,663.3C268.3,662.2 269.9,659.7 270.4,657.7C271.2,654.7 271,653.7 269.4,651.9C267.2,649.3 260.4,646.1 257.4,646C256.2,646 254.2,645.2 252.9,644.1C250.9,642.5 250.8,642 251.9,640.6C254,638.1 259.3,638.6 262,641.5C265.3,645 268.5,644.5 268.5,640.6C268.5,632.9 249,631.5 245,638.9C243.4,642 243.8,645.5 246.1,647.6C247.2,648.6 251.4,650.6 255.3,652C262.9,654.7 264.9,657.1 261.4,659.7C258.4,661.9 254.4,661.3 251.3,658C247.9,654.3 244,653.9 244,657.3C244,660.6 246.6,663.8 250.3,664.9C255.3,666.5 263.7,665.6 266.8,663.3ZM309.1,664.1C312,661.7 310.9,660.3 306,659.8L302.5,659.5L301.9,640.1L304.7,639.8C306.7,639.6 307.6,638.9 307.8,637.2C308.1,635.4 307.6,634.9 305.1,634.4C302.2,633.8 302,633.4 302,629.6C302,625.1 300.7,623 297.8,623C295.5,623 294,626 294,630.4C294,633 293.5,634 292,634.5C289.4,635.3 289.4,639 291.9,639.7C293.6,640.1 293.8,641.4 294.2,651.2C294.5,661.3 294.7,662.4 296.9,664.1C300,666.6 306.1,666.6 309.1,664.1ZM334.3,664.6C342.3,661.3 345.9,651.7 342.4,643.1C339.7,636.8 335.4,634 328,634C320.6,634 316.3,636.8 313.6,643.1C307.9,657 320.8,670.3 334.3,664.6ZM443,665C444.2,664.3 444.6,660.8 444.8,646.8C445,637.3 444.9,628.1 444.5,626.4C443.6,621.3 441.2,621.3 436.5,626.3C434.3,628.7 430.5,631.7 428.2,632.9C424.8,634.6 423.9,635.6 424.2,637.3C424.6,640.4 427.9,640.5 432.3,637.5C434.4,636.1 436.3,635 436.5,635C436.8,635 437,641.4 437,649.3C437,665.5 438,668.2 443,665ZM552.4,664.4C553.6,663.2 554,660.8 554,654.5C554,649.9 554.5,644.9 555.2,643.5C556.4,640.9 557,640.7 563.1,641C567.6,641.2 568.9,638.9 566,636C563.3,633.3 557.9,633.4 555.4,636.1L553.6,638.1L552.8,636.1C551.9,633.6 547.5,633.2 546.6,635.6C545.4,638.6 545.9,663.5 547.2,664.8C548.8,666.4 550.5,666.3 552.4,664.4ZM578.9,664.6C579.7,663.7 580,658.8 579.8,649.5C579.5,637.6 579.3,635.6 577.8,634.6C576.5,633.8 575.5,633.8 574.3,634.6C572.8,635.6 572.5,637.6 572.2,648.9C572.1,656.8 572.4,662.8 573,664C574.2,666.3 577.2,666.6 578.9,664.6ZM632,665C633.1,664.3 633.6,661.3 634,653.5C634.6,641.8 635.5,640 641.2,640C645.1,640 646,642.4 646,653C646,662.8 647,666 649.9,666C653.6,666 654.2,663.7 653.8,651C653.5,639.1 653.4,638.8 650.7,636.4C647,633.3 640.4,633.1 636.6,636.1L634,638.1L634,632.6C634,624.7 632.7,621.8 629.2,622.2L626.5,622.5L626.2,642.9C626,663.1 626.4,666 629.4,666C630,666 631.2,665.5 632,665ZM677.4,665C679,664.4 680,663.3 680,662C680,660.4 679.3,660 676.7,660C671.7,660 671,658.6 671,648.8C671,640.2 671.1,640 673.4,640C676.7,640 678.7,637.5 677,635.5C676.3,634.7 674.7,634 673.4,634C671.2,634 671,633.6 671,629.8C671,624.4 669.9,622.7 666.9,623.2C664.8,623.5 664.5,624.1 664.2,628.7C663.9,633.2 663.6,633.9 661.5,634.4C658.1,635.3 658.2,638.7 661.5,640C663.9,640.9 664,641.2 664,651.3C664,661.7 664.7,664.1 668,665.3C670.5,666.2 674.7,666.1 677.4,665ZM848.2,663.5L849.3,661L851.6,663.1C856.8,667.9 866.6,665.8 870.2,659C872.4,654.7 872.6,645.1 870.5,641C867,634.2 858.9,631.9 852.3,636L849,638L849,631.9C849,625 847.8,622 845,622C841.6,622 841,625.2 841,644C841,654.6 841.4,662.9 842,664.1C843.5,666.8 846.8,666.5 848.2,663.5ZM901.8,663.3C906.8,659.6 908.5,656.3 908.5,650.2C908.5,639.9 902.6,634 892.5,634C886,634 881.5,636.8 879,642.3C873.4,654.5 881.5,666.8 894.3,665.7C897,665.5 900.3,664.4 901.8,663.3ZM930.4,665C932,664.4 933,663.3 933,662C933,660.4 932.3,660 929.5,660C925,660 924,657.7 924,647.4C924,640.3 924.1,640 926.4,640C929.7,640 931.7,637.5 930,635.5C929.3,634.7 927.7,634 926.4,634C924.2,634 924,633.6 924,629.8C924,624.4 922.9,622.7 919.9,623.2C917.9,623.4 917.4,624.3 916.7,628.4C916.2,631.5 915.2,633.9 913.9,634.8C911.5,636.5 911.4,639 913.9,639.7C915.5,640.1 915.8,641.5 916.3,650.3C916.6,655.9 917.2,661.3 917.6,662.3C918.8,665.6 925.3,667 930.4,665ZM953.1,664.1C956,661.7 954.9,660.3 950,659.8L946.5,659.5L945.9,640.3L949,639.7C953.2,638.8 953.2,635.2 949,634.4C946.4,633.8 946,633.3 946,630.3C946,626 944.4,623 942.2,623C939.3,623 938,625.1 938,629.5C938,632.7 937.6,633.7 935.8,634.5C934.5,635.1 933.5,636.2 933.5,637C933.5,637.8 934.5,638.9 935.8,639.5C937.9,640.4 938,641 938,651.2C938,661.5 938.1,661.9 940.6,663.9C944,666.6 950,666.7 953.1,664.1ZM978.9,664.2C988.4,659.4 990.3,645.5 982.5,638C979.4,635 978.2,634.5 972.7,634.2C967.5,633.9 966,634.2 963,636.2C953.1,642.8 953.9,659.3 964.3,664.1C969.6,666.4 974.5,666.5 978.9,664.2ZM999.9,665.1C1000.9,664.4 1001.5,661.1 1001.9,653.7C1002.6,642.3 1003.6,640 1008,640C1011.6,640 1012,641.2 1012,653C1012,663 1013,666 1016.4,666C1018.9,666 1019.7,663.4 1020.3,653.7C1020.7,646.3 1021.3,643.3 1022.6,641.9C1024.5,639.7 1028.5,639.4 1029.7,641.3C1030.1,641.9 1030.7,647.4 1031,653.4C1031.4,662.3 1031.8,664.5 1033.3,665.4C1034.5,666.2 1035.5,666.2 1036.8,665.4C1038.2,664.5 1038.5,662.5 1038.8,652.9C1039,646.3 1038.6,640.5 1038,638.9C1035.9,633.9 1027.4,632.3 1022.7,636.1L1020.1,638.1L1017.1,635.9C1014.7,634.2 1013.2,633.8 1009.5,634.2C1007,634.5 1004.1,635.5 1003,636.5C1001.3,638.1 1001.1,638 1000.5,636C1000,634.4 999.2,634 997.2,634.2L994.5,634.5L994.2,648.9C993.9,665.2 994.9,668.2 999.9,665.1ZM1105.4,665.4C1106.5,665 1107,663.5 1107,660.4C1107,656.4 1107.2,656 1109.5,656C1112.4,656 1114.6,652.7 1112.7,651.2C1112.1,650.7 1110.6,650 1109.5,649.8C1107.6,649.5 1107.5,648.6 1107.2,637.1C1106.8,617 1104.8,616.9 1090.5,636.1C1076.6,654.6 1076.7,656 1091.2,656L1100,656L1100,659.8C1100,664.9 1101.8,666.8 1105.4,665.4ZM747.9,663.6C748.5,662.9 748.8,661.5 748.4,660.7C747.7,658.8 744.3,658.1 735,657.7L728.6,657.5L735.7,651.5C747.5,641.5 750.3,635.2 746,628.3C742.4,622.3 734.3,620.4 726.7,623.8C720.4,626.6 716.9,633.5 720.2,636.8C722.3,638.9 723.9,638.1 726,634C727.2,631.7 729.2,629.4 730.5,628.8C735.8,626.4 741,630.8 739.6,636.5C739.2,638.1 735,643 729.4,648.3C719.9,657.4 717.8,660.8 720,663.5C721.7,665.6 746.2,665.7 747.9,663.6ZM513,659L513,648L524,648L524,640L513,640L513,628.9L509.3,629.2L505.5,629.5L504.9,639.9L494.5,640.5L494.2,644.3L493.9,648L505,648L505,652.8C505,658.6 505.3,659 509.7,659L513,659ZM808.8,653.3L809.1,648L820.1,648L819.8,644.3L819.5,640.5L809.1,639.9L808.5,629.5L804.8,629.2L801,628.9L801,640L790,640L790,648L801,648L801,659.1L804.8,658.8L808.5,658.5L808.8,653.3ZM101.1,629C105.4,626.6 102,620.8 97.5,622.8C94.6,624.1 94.2,627.4 96.8,628.9C98.9,630.2 98.8,630.2 101.1,629ZM235.5,628.4C237.4,626.4 237.1,624.1 234.8,622.6C231,620.3 227,626.1 230.6,628.7C232.9,630.4 233.5,630.3 235.5,628.4ZM578.1,629C582.4,626.6 579,620.8 574.5,622.8C571.6,624.1 571.2,627.4 573.8,628.9C575.9,630.2 575.8,630.2 578.1,629ZM357.4,596.9C357.7,595.2 358,591.7 358,589.2L358,584.7L360.4,586.9C365.2,591.5 373.8,590 378.3,583.9C381.1,580 381.7,569.6 379.3,565.1C375.5,557.8 367,555.4 361,559.9C357.6,562.4 357,562.5 357,560.6C357,558.2 354.4,556.7 352.1,558C350.1,559 350,559.9 350,579C350,595.7 350.2,599.1 351.6,600.4C353.8,602.6 356.6,600.9 357.4,596.9ZM418.6,598.5C419.6,596.1 417.1,594 413.4,594L410,594L410.2,572.8L410.5,551.5L414.3,551.2C418.7,550.8 420.3,548.4 417.5,546.4C415,544.5 408,544.6 405.2,546.6C403,548.1 403,548.4 403,572.9C403,590.8 403.3,597.9 404.2,598.8C406,600.6 417.9,600.4 418.6,598.5ZM470.8,598.8C471.7,597.9 472,590.6 472,572.3L472,547L469.4,546C465.5,544.5 459.3,544.8 457.5,546.6C455.1,549 456.2,550.4 460.6,551L464.5,551.5L464.8,572.8L465,594L461.6,594C457.8,594 455.6,595.9 456.6,598.4C457.1,599.6 458.6,600 463.4,600C466.9,600 470.1,599.5 470.8,598.8ZM782.4,598.4C783.4,595.9 781.2,594 777.4,594L774,594L774,551L777.9,551C782.3,551 783.8,549 781.4,546.5C779.7,544.8 773.4,544.5 769.6,546L767,547L767,572.3C767,590.6 767.3,597.9 768.2,598.8C768.9,599.5 772.1,600 775.6,600C780.4,600 781.9,599.6 782.4,598.4ZM834.8,598.8C835.7,597.9 836,590.8 836,572.9C836,552.2 835.8,548 834.5,547C832.3,545.2 824.7,544.6 822.1,546C818.6,547.8 819.9,550.4 824.5,551L828.5,551.5L828.8,572.8L829,594L825.6,594C821.9,594 819.4,596.1 820.4,598.5C821.1,600.4 833,600.6 834.8,598.8ZM90.8,587.7C93.2,585.3 91.5,582.6 88.1,583.3C83.8,584.2 83,582.6 83,572.9L83,564.2L86.1,563.5C90.2,562.6 89.9,558.7 85.8,558.2C83.3,557.9 83,557.5 83,554C83,548.6 82.2,547 79.4,547C76.6,547 75,549.6 75,554.3C75,556.9 74.5,557.9 73,558.3C70.5,559 70.4,562.6 72.9,563.3C74.5,563.7 74.8,565.1 75.2,574.1C75.8,585.8 76.4,587.8 79.4,589.1C82.3,590.3 88.9,589.5 90.8,587.7ZM101.4,588.4C102.7,587.2 103,584.3 103,573C103,560.3 102.8,559 101.1,558C98.6,556.7 98.4,556.7 96.6,558.6C94.3,560.9 94.3,586.1 96.6,588.4C97.4,589.3 98.5,590 99,590C99.5,590 100.6,589.3 101.4,588.4ZM117.8,588.8C118.7,587.9 119,581.8 119,567.3C119,549.2 118.8,547 117.3,546.1C116.2,545.5 114.9,545.5 113.8,546.1C112.2,547 112,548.9 112,567.3C112,587.5 112.4,590 115.5,590C116.1,590 117.1,589.5 117.8,588.8ZM147.4,588.9C151.6,587.7 156,584 156,581.5C156,578.7 153.1,578.7 149.2,581.4C146.8,583.1 144.1,584 141.7,584C138.6,584 137.7,583.5 136,580.8C132.7,575.3 133,575.1 144.8,574.8L155.5,574.5L155.8,571C157,558.8 139.6,552.5 130.6,561.9C125.1,567.6 124.9,578.6 130.2,584.6C134.5,589.5 140.2,590.9 147.4,588.9ZM200.5,587.2C207.8,583 209.2,570.7 203.1,564.7C200.2,561.8 199.4,561.5 193.5,561.5C186.5,561.5 186.1,561.1 187.6,555.3C188.2,553.3 188.9,553.1 196.9,552.8C205.3,552.5 205.5,552.5 205.5,550C205.5,547.5 205.5,547.5 194.6,547.2C188.6,547.1 183.3,547.3 182.7,547.9C182.2,548.4 181,553 180,558.1C178.3,566.9 178.3,567.6 179.9,569.2C181.5,570.9 181.8,570.9 186.2,568.5C191.9,565.5 193,565.4 196.4,568.1C198.6,569.8 199,570.9 199,575.1C199,584.7 191.7,587.2 185,579.9C180.7,575.1 178,575.1 178,579.8C178,583.3 182,587.6 186.4,589C190.4,590.2 196.7,589.4 200.5,587.2ZM235.4,588.4C237.7,586.1 237.7,560.9 235.4,558.6C234.6,557.7 233.5,557 233,557C232.5,557 231.4,557.7 230.6,558.6C228.3,560.9 228.3,586.1 230.6,588.4C231.4,589.3 232.5,590 233,590C233.5,590 234.6,589.3 235.4,588.4ZM264,588.4C268.1,586.7 271,582.9 271,579.2C271,575.6 267.6,573 259.5,570.2C250.6,567.2 248.7,564.8 253.6,562.9C256.7,561.8 258.6,562.4 263,566C266.1,568.5 269,567.7 269,564.4C269,561.6 265.7,559.2 260,557.9C248.9,555.4 239.6,564.7 246.3,571.4C247.6,572.7 251.3,574.5 254.6,575.5C257.8,576.4 261.1,577.7 261.8,578.2C263.9,580 263.2,583 260.4,584.1C256.9,585.4 254.2,584.5 250.3,580.8C246.7,577.4 244,577.6 244,581.3C244,584.7 246,586.9 250.5,588.5C255.8,590.4 259.1,590.3 264,588.4ZM309.8,587.7C312.2,585.3 310.5,582.6 307.1,583.3C302.8,584.2 302,582.6 302,572.9L302,564.2L305.1,563.5C309.2,562.6 308.9,558.7 304.8,558.2C302.3,557.9 302,557.5 302,554C302,548.7 301.2,547 298.6,547C295.3,547 294,548.9 294,553.6C294,556.9 293.6,557.9 292,558.3C290.8,558.6 290,559.7 290,560.8C290,562 290.9,563.1 292,563.5C293.8,564.1 294,565.1 294.1,572.8C294.3,584.3 295,587.2 298,588.8C301,590.4 307.7,589.7 309.8,587.7ZM332,589.3C336.6,588.4 342.5,582.2 343.4,577.5C345.8,564.8 335.8,555 323.5,558.1C311.7,561.1 308,578.1 317.5,585.7C322.5,589.7 326,590.6 332,589.3ZM443.7,586.9C444.6,585.3 445,578.9 445,567.2C445,544.3 444,542.3 436,550.6C433.5,553.1 429.8,556.1 427.7,557.1C424.8,558.6 423.9,559.6 424.2,561.3C424.6,564.1 428.9,564 432.7,561.1C434.1,559.9 435.7,559 436.1,559C436.6,559 437,565.5 437,573.5C437,586.2 437.2,588 438.8,588.9C441.1,590.3 442.3,589.8 443.7,586.9ZM551.1,589C552.1,588.4 553,587.2 553,586.4C553,585.2 553.6,585.3 556,587C562.5,591.6 570.4,589.8 574.5,582.9C578.6,575.9 576.4,563.3 570.4,559.3C566.7,556.9 560,557.2 556.1,559.9L553,562.1L553,554.6C553,548.5 552.7,546.9 551.3,546.1C550.2,545.5 548.9,545.5 547.8,546.1C546.2,547 546,548.9 546,567.3C546,589.7 546.4,591.5 551.1,589ZM606.1,587.3C612.6,583.5 615.1,571.4 610.8,565C607.1,559.6 603.8,557.7 597.8,557.6C587.7,557.5 581.9,563.3 581.9,573.5C581.9,580.7 584.2,584.8 590,587.8C595.1,590.5 601.1,590.3 606.1,587.3ZM636.8,587.6C638.1,586.3 638.1,585.8 637,584.5C636.3,583.6 634.7,583 633.6,583.1C629,583.4 629,583.4 629,573.6L629,564.2L632.1,563.1C636,561.8 635.8,558.6 631.7,558.2C629.2,557.9 629,557.5 629,553.6C629,548.9 627.7,547 624.4,547C621.9,547 621,548.7 621,553.8C621,556.7 620.5,557.8 618.8,558.5C615.6,560 615.5,561.8 618.4,563.1C620.9,564.3 621,564.6 621,573.6C621,584.1 622,587.6 625.2,589C628.3,590.3 634.9,589.5 636.8,587.6ZM657.8,587.7C660.2,585.3 658.5,582.6 655.1,583.3C650.8,584.2 650,582.6 650,572.9L650,564.2L653.1,563.5C657.2,562.6 656.9,558.7 652.8,558.2C650.3,557.9 650,557.5 650,554C650,548.6 649.2,547 646.4,547C643.6,547 642,549.6 642,554.3C642,556.9 641.5,557.9 640,558.3C638.8,558.6 638,559.7 638,560.8C638,562 638.9,563.1 640,563.5C641.8,564.1 642,565.1 642.1,572.8C642.3,584.3 643,587.2 646,588.8C649,590.4 655.7,589.7 657.8,587.7ZM680,589.4C681.8,589 684.9,587.1 687,585.1C691.4,580.9 693,574.4 691.2,568.1C686.8,553.6 664.2,554.3 660.9,569C658,581.9 667.4,591.9 680,589.4ZM704,589C705.1,588.3 705.6,585.4 706,577.4C706.5,567.8 706.8,566.6 708.9,564.9C711.7,562.6 712.1,562.6 714.6,564.4C716.2,565.6 716.5,567.3 716.8,576.9C717.1,586.5 717.4,588.2 719,589C721.5,590.3 723.9,589.3 724.5,586.6C724.8,585.5 725.1,580.5 725.3,575.6C725.5,567.3 725.7,566.6 728.1,564.8C730.2,563.2 731.2,563 732.8,563.9C734.6,564.9 734.9,566.1 735.2,576C735.4,584.8 735.8,587.3 737.3,588.7C738.6,590.1 739.4,590.2 740.8,589.4C743.2,587.8 743.9,565 741.6,561.5C738.4,556.7 730.6,556.3 725.8,560.7C724.3,562 723.9,562 721.9,560.1C718.4,556.9 712.2,556.9 707.8,560.1C705.7,561.6 705,561.7 705,560.7C705,558.2 702.4,556.7 700.1,558C698.1,559 698,559.9 698,573.5C698,586.2 698.2,588 699.8,588.9C701.9,590.2 702.1,590.2 704,589ZM810.4,588.4C811.3,587.6 812,585.3 812,583.4C812,580.8 812.4,580 813.8,580C818.4,580 819.3,575.4 815,573.9L812,572.8L812,561.3C812,548.9 811.2,546 807.6,546C805.7,546 803.1,548.9 795,559.7C789.3,567.2 784.5,574.1 784.3,575C783.4,578.3 787.7,580 796.7,580L805,580L805,583.8C805,587.3 806.4,590 808.1,590C808.5,590 809.6,589.3 810.4,588.4ZM513,583L513,572L524,572L524,564L513,564L513,553L505,553L505,564L494,564L494,572L505,572L505,576.8C505,582.6 505.3,583 509.7,583L513,583ZM102.7,551.4C104.1,547.6 98.6,544.3 96.1,547.4C95.4,548.2 95.1,549.8 95.5,551C96.3,553.5 101.7,553.8 102.7,551.4ZM236.5,551C236.9,549.8 236.6,548.3 236,547.5C233.3,544.2 228.2,547 229.5,551C229.9,552.4 231,553 233,553C235,553 236.1,552.4 236.5,551ZM358.4,521.7C358.7,520.5 359,516.8 359,513.6L359,507.7L361.3,509.7C366.5,514.6 375.2,512.9 379.7,506.1C384,499.7 382.3,487.7 376.5,483.2C372.9,480.3 365.3,480.2 361.8,482.9C359.4,484.8 359.4,484.8 358.2,482.9C356.7,480.6 352.5,480.4 351.6,482.6C351.3,483.5 351,492.6 351,503C351,518.3 351.3,522.1 352.5,523.3C354.4,525.3 357.7,524.4 358.4,521.7ZM419.8,520.6C420.3,518.3 418.4,517 414.8,517L412,517L412,475L414.9,475C418.1,475 420.5,472.8 419.6,470.5C418.9,468.6 407,468.4 405.2,470.2C403.6,471.8 403.5,518.2 405.1,521.1C406,522.8 407,523.1 412.8,522.8C418.4,522.5 419.5,522.2 419.8,520.6ZM472.5,522.5L472.5,469.5L465.4,469.2C459.7,469 458.1,469.2 457.7,470.4C456.8,472.6 459.7,475 463.1,475L466,475L466,517L463.2,517C459.4,517 456.7,519.1 457.6,521.3C458.1,522.8 459.3,523 465.4,522.8L472.5,522.5ZM671,520.6C671,518.1 669.4,517 665.4,517L663,517L663,475L665.8,475C669.4,475 671.3,473.7 670.8,471.4C670.3,468.6 658.2,468 656.3,470.6C654.7,472.8 654.4,516.4 656,520.4C656.9,522.9 657.4,523 664,523C670.7,523 671,522.9 671,520.6ZM724,521.1C725.6,518.1 725.3,472.9 723.7,470.6C721.8,468 709.7,468.6 709.2,471.4C708.7,473.7 710.6,475 714.3,475L717,475L717,517L714.6,517C710.9,517 709,518 709,519.9C709,522.6 709.9,523 716.6,523C721.8,523 723.1,522.7 724,521.1ZM89.9,511.9C92.3,511 93,510.3 92.8,508.6C92.6,506.9 91.9,506.5 89.6,506.7C84.7,507.1 84,505.7 84,495.9C84,488 84.2,487 85.8,487C86.8,487 88.5,486.4 89.5,485.6C91.1,484.4 91.2,484 90.1,482.6C89.4,481.7 87.7,481 86.4,481C84.3,481 84,480.5 84,477.1C84,471.6 83.2,470 80.4,470C77.6,470 76,472.6 76,477.4C76,480 75.5,481 74,481.5C71.5,482.3 71.4,485.7 73.9,486.5C75.5,487 75.8,488.4 76.2,497.3C76.8,509.2 77.3,510.6 80.8,511.9C84.5,513.2 86.1,513.2 89.9,511.9ZM102.3,511.7C103.9,510.6 104,508.7 103.8,496L103.5,481.5L101.1,481.2C96.9,480.6 96,483.2 96,496.5C96,505.8 96.4,509.1 97.6,510.8C99.4,513.3 100,513.5 102.3,511.7ZM118.9,511.6C119.7,510.7 120,504.1 119.8,489.9L119.5,469.5L113.5,469.5L113.2,489.9C113,510.3 113.3,513 116.5,513C117.2,513 118.3,512.4 118.9,511.6ZM149.2,512C152.9,510.9 157,506.9 157,504.3C157,501.8 154.2,501.8 150.8,504.3C149,505.7 146.5,507.1 145.4,507.4C142,508.4 138,506.3 136.5,502.8L135.2,499.5L145.3,498.9C158.3,498 159.4,497 155.8,487.8C153.5,481.8 142.4,478.8 135.4,482.2C129.4,485 126,493.7 128,501C130.5,510.3 139.1,514.8 149.2,512ZM200.9,510.7C204.7,508.9 208,503.3 208,498.9C208,495.9 207.3,494.3 204.6,491.7L201.3,488.4L203.6,485.6C210.6,477.5 201.6,467.2 189.6,469.4C184.7,470.3 179.8,475.2 180.2,478.7C180.7,482.8 184,482.8 186.5,478.7C190,473.2 198,473.9 198,479.8C198,483 195.3,486 192.4,486C188.6,486 187,487.1 187,489.6C187,491.7 187.5,492 190.6,492C194.2,492 197.9,493.5 199.2,495.4C200.7,497.6 200,502.4 197.8,504.7C193.9,508.8 188.9,507.6 185.9,501.9C183.9,497.8 181.2,496.9 179.1,499.4C176.5,502.5 182.5,510.7 188.5,512.3C191.2,513 197.8,512.2 200.9,510.7ZM236.1,512C237.8,511 238,509.8 238,497.5C238,490.2 237.7,483.5 237.4,482.6C236.6,480.5 231.4,480.5 230.6,482.6C230.3,483.5 230,489.9 230,497C230,507.4 230.3,510.2 231.6,511.4C233.4,513.3 233.6,513.3 236.1,512ZM263.5,512C271.2,510.2 274.5,502.4 269.6,497.5C268.3,496.2 265.3,494.6 262.9,494C252.3,491.1 250.2,489.2 254.6,486.4C257.3,484.6 259.2,485.1 264,489C267.2,491.5 270,490.8 270,487.4C270,483.6 264.8,481 257.2,481C251.5,481 250.5,481.3 247.9,483.9C242.2,489.7 245.2,495.4 255.6,498.6C258.8,499.6 262.1,500.8 262.8,501.3C264.6,502.7 264.3,505.8 262.1,507C258.7,508.8 256.1,508.1 252.1,504.5C247.9,500.7 245,500.6 245,504.4C245,508.4 251.4,512.7 257.5,512.9C258.6,512.9 261.3,512.5 263.5,512ZM310.8,510.6C313.1,508.3 311.5,505.7 308.4,506.4C304,507.6 303,505.7 303,496L303,487.3L306.1,486.6C308.6,486.1 309.1,485.6 308.8,483.8C308.6,482.1 307.7,481.4 305.8,481.2C303.3,480.9 303,480.5 303,477C303,471.6 302.2,470 299.4,470C296.6,470 295,472.6 295,477.3C295,479.9 294.5,480.9 293,481.3C290.5,482 290.4,485.7 292.9,486.5C294.5,487 294.8,488.4 295.2,498C295.7,509.3 296.4,511.5 300.3,512.3C303.8,513.1 309.2,512.2 310.8,510.6ZM337.9,510.2C342.9,506.5 344.5,503.2 344.5,496.6C344.5,486.3 339.2,481 329,481C321.7,481 317.5,483.6 314.8,489.7C311,498.3 314.9,508.8 323.1,511.7C327.4,513.3 334.8,512.5 337.9,510.2ZM444.4,511.4C445.7,510.1 446,506.8 446,491.4C446,467.4 444.9,465.1 437.3,473.4C435.1,475.8 431.4,478.8 429.1,480C425.8,481.6 424.9,482.6 425.2,484.3C425.6,487.4 428.6,487.6 433,484.6C435.2,483.2 437.2,482 437.5,482C437.8,482 438,488.5 438,496.5C438,509.2 438.2,511 439.8,511.9C442.1,513.3 442.6,513.3 444.4,511.4ZM553.4,511.4C554.7,510.1 555,506.8 555,490.6C555,477 554.7,471.1 553.8,470.2C552.1,468.5 548.3,468.7 547.6,470.6C547.3,471.5 547,480.6 547,491C547,506.8 547.3,510.1 548.6,511.4C549.4,512.3 550.5,513 551,513C551.5,513 552.6,512.3 553.4,511.4ZM583.2,512C589.6,510.2 594.4,502 589,502C588,502 586.6,502.7 585.9,503.7C583.4,506.6 578.1,508.3 575,507C572.6,506 570,502.4 570,500.1C570,499.6 574.2,499.1 579.4,498.8C585.2,498.6 589.4,497.9 590.4,497.1C592.7,495.2 592.4,490.9 589.7,486.9C586.8,482.5 583.1,480.8 576.9,480.8C567.6,480.9 562,486.9 562,496.5C562,501.3 564.1,507 566.6,509.1C568.4,510.6 574.9,512.9 577.5,513C578.6,513 581.2,512.5 583.2,512ZM606.1,512C607.8,511 608,509.8 608,499.1L608,487.3L611.1,486.6C613.6,486.1 614.1,485.6 613.8,483.8C613.6,482.1 612.7,481.4 610.8,481.2C608.7,480.9 608,480.3 608,478.6C608,475.5 609.9,474 613.8,474C616.7,474 617.1,473.7 616.8,471.8C616.5,469.8 615.8,469.5 611.2,469.2C604,468.8 601.3,470.6 600.5,476.5C599.9,479.9 599.3,481 598,481C597,481 595.7,481.7 595,482.5C593.4,484.4 595.3,487 598.1,487C599.8,487 600,487.9 600,498.4C600,507.5 600.3,510.2 601.6,511.4C603.4,513.3 603.6,513.3 606.1,512ZM633.9,511.9C636.3,511 637,510.3 636.8,508.6C636.6,506.9 635.9,506.5 633.6,506.7C628.7,507.1 628,505.7 628,496L628,487.3L631.1,486.6C633.6,486.1 634.1,485.6 633.8,483.8C633.6,482.1 632.7,481.4 630.8,481.2C628.3,480.9 628,480.5 628,477C628,471.6 627.2,470 624.4,470C621.6,470 620,472.6 620,477.3C620,479.9 619.5,480.9 618,481.3C616.8,481.6 616,482.7 616,483.8C616,485 616.9,486.1 618,486.5C619.8,487.1 620,488 620.1,495.8C620.1,506.4 621.6,511.2 625,512.1C628.8,513.1 630.4,513.1 633.9,511.9ZM704.7,510.4C706.1,506.7 703.7,505.5 694.4,505.2L685.5,504.9L694.6,496.2C701.9,489.2 703.9,486.8 704.4,483.8C705.2,479.2 703.1,473.8 699.6,471.5C696.1,469.2 689.1,468.5 684.7,470C678,472.2 673.5,480.7 677.4,483.9C679.5,485.6 681.5,484.3 683.4,480C687.1,471.6 698.8,474.6 696.6,483.3C696.3,484.7 694.1,487.6 691.8,489.7C680,500.3 676,504.8 676,507.1C676,511.5 677.5,512 691.2,512C702.2,512 704.2,511.8 704.7,510.4ZM514,506L514,495L525,495L525,487L514,487L514,476L507,476L507,486.9L501.3,487.2L495.5,487.5L495.5,494.5L501.3,494.8L507,495.1L507,506L514,506ZM103.7,474.4C104.5,472.3 102.8,469.6 100.5,469.1C97.9,468.6 95.8,471.7 97.1,474.1C98.3,476.4 102.8,476.6 103.7,474.4ZM237.7,474.4C239.1,470.6 233.6,467.3 231.1,470.4C230.4,471.2 230.1,472.8 230.5,474C231.3,476.5 236.7,476.8 237.7,474.4ZM1087,397L1087,281L971,281L971,338.3C971,369.9 971.3,396 971.7,396.3C972,396.7 998.1,397 1029.7,397L1087,397ZM140.8,394.9C150.5,392.7 161.3,386.9 168.3,380.1C176.2,372.4 179.8,367.1 183.6,357.5C186.1,351.2 186.4,349.2 186.4,338C186.5,326.6 186.3,324.9 183.8,319C179.2,307.8 177.8,305.8 170.1,297.9C163,290.7 152.6,284 148.6,284C147.8,284 147,283.6 146.8,283.1C146.1,281 132,280 102.3,280L71,280L71,396L103.8,396C122,396 138.4,395.5 140.8,394.9ZM263.9,394.5C283.4,389.5 297.4,376.1 305.3,355C307.3,349.9 307.4,347 307.8,314.8L308.1,280L192,280L192,396L225.1,396C251,396 259.5,395.7 263.9,394.5ZM437.2,391.3C437.4,388.6 437.4,362.5 437.2,333.3L437,280L322,280L322,396L436.9,396L437.2,391.3ZM566,396L566,280L450,280L450,396L566,396ZM693,361.7C693,325 692.6,321.9 686.7,310.1C681.1,299 666.7,286.5 655.4,283.1C653.3,282.4 650.4,281.3 649.1,280.7C647.4,279.8 636.7,279.5 612.1,279.5L577.5,279.5L577.2,337.3L577,395L693,395L693,361.7ZM824,395L824,279L766.3,279.2L708.5,279.5L708.2,337.3L708,395L824,395ZM955,395L955,279L839,279L839,395L955,395ZM435,263L435,147L402.2,147C366.4,147 363.5,147.3 352,152.9C339,159.2 326.5,172.4 323.7,182.8C323.1,185.1 322.3,187 322,187C321.6,187 320.7,190.1 320,193.9C318.3,203.2 319.1,216.1 321.9,222.2C323,224.8 324,227.5 324,228.2C324.2,232 333.9,244.6 341.2,250.3C346.9,254.8 359,260.7 365.1,261.9C367.5,262.4 384.2,262.8 402.3,262.9L435,263ZM562,263L562,147L446,147L446,179.3C446,210.5 446.1,211.8 448.5,219.8C452.1,232 454.7,236.6 462.6,244.5C471.9,253.8 472.1,253.9 486.5,260.2C491.3,262.3 499.5,262.8 529.8,262.9L562,263ZM824,263L824,147L708,147L708,263L824,263ZM955,263L955,147L921.8,147C896.6,147 887.2,147.4 883.3,148.4C875.2,150.6 865.9,155.5 861.6,159.9C859.4,162.1 857.2,163.6 856.6,163.3C856,163 855.8,163 856.1,163.3C856.4,163.7 854.9,165.8 852.8,168.1C848.7,172.4 845.5,178.1 841.9,187.6C839.7,193.2 839.6,195 839.2,228.3L838.9,263L955,263ZM1087,263L1087,147L971,147L971,204.3C971,235.9 971.3,262 971.7,262.3C972,262.7 998.1,263 1029.7,263L1087,263ZM141.4,260.4C155.9,256.7 168.3,247 176.6,233.1C186.5,216.2 186.8,194.1 177.3,176C173.4,168.7 169.9,164.7 162,158.5C155.4,153.5 151.5,151.4 144.6,149.2C141.8,148.4 138.8,147.4 138,147.1C135.8,146.4 117.9,146.4 115,147.2C103.8,150.2 96.6,153.7 92.1,158.4C90.2,160.4 88.2,162 87.7,162C86.3,162 79.3,170.1 77.3,174C76.3,175.9 75,178.2 74.3,179C73.7,179.8 72.2,183.9 71.1,188C67.2,202.1 69,220.8 75.3,230.7C76.8,233.1 78,235.4 78,235.9C78,236.5 80.7,239.8 84,243.4C90.4,250.2 97.6,255.4 102.3,256.5C103.8,256.9 105,257.6 105,258C105,259.6 117.4,261.8 126.4,261.9C131.5,262 137.8,261.3 141.4,260.4ZM269.9,259C282.4,254.6 292.4,245.9 300.5,232.5C302.4,229.3 304,225.9 304,225.1C304,224.2 304.8,222.2 305.8,220.5C307.3,217.8 307.5,213.9 307.5,182L307.5,146.5L249.7,146.2L191.9,146L192.2,181.7C192.6,221 192.5,220.3 199.3,232.7C203.2,240 215.1,251.9 221,254.5C223.5,255.6 225.8,256.9 226.2,257.4C226.5,257.9 229.9,259.1 233.7,260.2C243.2,262.7 260.9,262.2 269.9,259ZM693,229.3C693,192.5 692.5,188.8 686.5,177.3C679.2,163.5 667.3,153.7 651.9,148.9C636.8,144.2 622.5,145.6 607.8,153.2C596.3,159.2 582.7,175.5 580.5,186C580.1,187.9 579.3,190.1 578.6,190.9C577.9,191.9 577.4,203.2 577.1,227.2L576.8,262L693,262L693,229.3Z" style="fill:rgb(34,34,34);fill-rule:nonzero;"/>
                <g>
                    <path d="M1034,361.9C1027.4,360.5 1021.7,351 1027.5,351C1028.9,351 1030,351.6 1030,352.3C1030,354.7 1034.5,358 1037.7,358C1041.7,358 1045,354.1 1045,349.3C1045,344.7 1043.7,342.5 1039.9,341C1037.1,339.8 1036.3,339.9 1032.4,342.1C1026,345.6 1025.4,344.4 1027.5,332.6L1029.2,323L1038.6,323C1048,323 1048,323 1048,325.5C1048,327.9 1047.8,328 1040.7,328L1033.5,328L1032.3,332.8C1031.1,337.9 1031.4,339 1033.2,337.2C1034.8,335.6 1040.9,335.7 1043.8,337.4C1049.5,340.5 1051.8,349.7 1048.5,356C1046.1,360.7 1039.9,363.2 1034,361.9Z" style="fill-rule:nonzero;"/>
                    <path d="M1008,362L1008,332.1L1003.5,334.7L999,337.2L999,334.7C999,332.9 1000,331.5 1002.6,330C1004.5,328.8 1006.8,326.7 1007.7,325.4C1008.5,324.1 1010.1,323 1011.1,323C1012.9,323 1013,324.1 1013,342.5L1013,362L1008,362Z" style="fill-rule:nonzero;"/>
                    <path d="M110.6,357.6C107.4,354.6 107,353.7 107,349.2C107,344.8 107.4,343.9 110.1,341.6L113.2,339L110.9,337.1C109.1,335.7 108.5,334.2 108.5,331.2C108.5,323.8 115.6,319.4 123.4,322C130.1,324.2 132.4,332.7 127.4,337.4C124.9,339.6 124.9,339.8 126.7,340.4C129,341.1 132,346 132,349C132,352.6 129.2,357.5 126.1,359.3C124.5,360.2 121.2,361 118.7,361C114.9,361 113.5,360.4 110.6,357.6ZM125.2,353.7C128.4,349.7 126.6,343.8 121.8,342.1C116.5,340.2 112,343.4 112,349.1C112,356.4 120.8,359.5 125.2,353.7ZM123.2,335.3C127,331.9 124.1,325 118.8,325C116.5,325 113,328.9 113,331.4C113,336.2 119.4,338.7 123.2,335.3Z" style="fill-rule:nonzero;"/>
                    <path d="M247.8,361.3C244.9,360.9 240,355.9 240,353.4C240,351.2 244.7,351.7 245.3,354C246,356.8 249.9,358.4 253.2,357.1C256.1,356 258.4,352.4 259.3,347.3L259.9,344.1L256.7,346C246.3,352.4 235.4,341.5 240.4,329.7C244.3,320.3 257.7,320.7 262.6,330.2C264.6,334.1 264.8,345 263.1,351.3C261.7,356 257.3,361 254.5,361C253.8,361 252.6,361.2 251.8,361.3C251.1,361.5 249.3,361.5 247.8,361.3ZM257.3,340.8C258.2,339.7 259,337.1 259,335.1C259,326.6 249.3,323.7 245.5,331.1C243.3,335.3 243.7,337.8 247,341.2C249.5,343.6 250.6,344.1 252.8,343.6C254.3,343.2 256.3,342 257.3,340.8Z" style="fill-rule:nonzero;"/>
                    <path d="M376,347L376,331.9L373.3,333.8C371.7,334.9 369.5,336.1 368.3,336.4C364.5,337.6 365.4,333.5 369.5,331C371.4,329.9 374.1,327.5 375.5,325.8C377,324 378.6,323 379.5,323.4C380.8,323.9 381,326.8 380.8,342.7C380.5,361.3 380.5,361.5 378.3,361.8C376,362.1 376,362.1 376,347Z" style="fill-rule:nonzero;"/>
                    <path d="M398.2,360.4C390,354.7 390.5,331 398.9,325.3C407.8,319.3 416.1,325.9 417.6,340.2C418.4,347.8 416.4,355.2 412.5,359.4C410.6,361.5 409.2,362 405.3,362C402.5,362 399.5,361.3 398.2,360.4ZM410.3,354.9C411.8,352.8 412.2,350.6 412.2,343.7C412.3,338.8 411.7,333.7 411,332C408.6,326.2 401.4,326 399.2,331.7C396.4,339.2 397.1,352.2 400.6,356.1C403.1,358.9 407.7,358.3 410.3,354.9Z" style="fill-rule:nonzero;"/>
                    <path d="M512,362L512,331.9L508.3,334.5C503.8,337.5 502,337.7 502,335.1C502,334.1 503.7,332.1 506,330.6C508.2,329.2 510.7,326.9 511.6,325.5C512.5,324.1 514.1,323 515.1,323C516.9,323 517,324.1 517,342.5L517,362L512,362Z" style="fill-rule:nonzero;"/>
                    <path d="M537.7,361.3C537.3,361 537,354.4 537,346.7L537,332.8L533.4,334.9C529.1,337.5 528,337.5 528,335.1C528,334.1 529.7,332.1 532,330.6C534.2,329.2 536.7,326.9 537.6,325.5C538.5,324.1 539.9,323 540.6,323C541.7,323 542,326.6 542,342.5C542,360.7 541.9,362 540.2,362C539.2,362 538,361.7 537.7,361.3Z" style="fill-rule:nonzero;"/>
                    <path d="M632,361L632,331.9L627.5,334.6L623,337.2L623,334.7C623,332.9 624,331.6 626.3,330.1C628.1,329 630.6,327 631.9,325.6C636.7,320.5 637,321.4 637,342L637,361L632,361Z" style="fill-rule:nonzero;"/>
                    <path d="M649,359.4C649,356.6 651,354 658.7,346.7C665.4,340.3 669,335.2 669,332C669,331.5 668.1,330.1 667,329C663.1,325.1 655,327.4 655,332.3C655,333.4 654.2,334 652.5,334C648.8,334 649.1,329.6 653.1,325.9C655.7,323.5 657,323 661.5,323C668,323 672.6,326.2 673.6,331.5C674.5,336.5 671.9,340.8 663.3,348.6L655.6,355.5L664.6,356C672.9,356.5 673.5,356.7 673.8,358.8C674.1,361 674,361 661.6,361C650.8,361 649,360.8 649,359.4Z" style="fill-rule:nonzero;"/>
                    <path d="M773.9,361.5C768.1,358.9 764.9,351 769.7,351C770.8,351 772,352.2 772.7,354C775,360 782.9,359.8 785.8,353.7C788.3,348.5 783.1,341.9 777.9,343.5C776.5,344 776,343.6 776,342.3C776,341.1 777.5,339.8 780.3,338.5C784.8,336.4 786,333.7 784,330.1C783.2,328.5 781.9,328 778.9,328C775.5,328 774.7,328.4 773.2,331C771.3,334.3 768,335.1 768,332.1C768,329.2 771.7,325.3 775.5,324C785.1,320.8 794.4,331.7 787.9,338.6L785.9,340.7L788.9,343.8C792.6,347.4 793,351.9 790,356.7C786.8,362.1 780.1,364.1 773.9,361.5Z" style="fill-rule:nonzero;"/>
                    <path d="M750,362L750,331.9L746.3,334.5C741.6,337.6 741,337.6 741,334.5C741,333.1 741.5,332 742,332C742.6,332 745.3,329.9 748,327.4C750.7,324.9 753.4,323.1 753.9,323.5C754.6,323.9 755,330.9 755,343.1L755,362L750,362Z" style="fill-rule:nonzero;"/>
                    <path d="M892,346.5C892,338.5 891.8,332 891.5,332C891.3,332 889.6,332.9 887.8,334C883.7,336.5 883,336.5 883,334.1C883,333.1 884.2,331.5 885.6,330.6C887,329.6 889.6,327.3 891.5,325.3C893.3,323.4 895.3,322.1 895.9,322.4C896.6,322.9 897,329.5 897,342.1L897,361L892,361L892,346.5Z" style="fill-rule:nonzero;"/>
                    <path d="M924,356.5L924,352L915.5,352C907.3,352 907,351.9 907,349.8C907,348.5 910.9,342.1 915.6,335.5C921.9,326.6 924.8,323.4 926.6,323.2L929,322.9L929,347L931.5,347C933.5,347 934,347.5 934,349.5C934,351.5 933.5,352 931.5,352C929.2,352 929,352.4 929,356.5C929,360.6 928.8,361 926.5,361C924.2,361 924,360.6 924,356.5ZM924,338.8C924,334.3 923.6,331 923.2,331.6C921.7,333.2 913,346.1 913,346.5C913,346.8 915.5,347 918.5,347L924,347L924,338.8Z" style="fill-rule:nonzero;"/>
                    <path d="M374.7,220.4C372.6,218.3 374.7,215 383.5,206.3C395.4,194.6 396.6,190.9 389.7,187C387.4,185.7 386.7,185.8 383.6,187.3C381.4,188.3 380,189.7 380,190.8C380,193.3 379.3,193.9 376.9,193.3C374,192.5 374.6,189.2 378.4,185.4C381.4,182.4 382.4,182 386.8,182C393,182 397.6,185.3 398.6,190.6C399.6,195.8 397.5,199.3 388.9,207.4C384.5,211.4 381,215 381,215.3C381,215.7 385.1,216 390.1,216C398.9,216 399.1,216.1 398.8,218.3C398.5,220.4 398.1,220.5 386.9,220.8C380.6,220.9 375.1,220.7 374.7,220.4Z" style="fill-rule:nonzero;"/>
                    <path d="M514.9,219.5C512.7,218.3 509,212.7 509,210.6C509,210.3 510.1,210 511.5,210C513.3,210 514.3,210.7 515,212.4C516.9,217.5 523.6,218.6 526.9,214.4C531,209.1 528.3,202 522.2,202C520.6,202 519.1,201.7 518.7,201.4C517.7,200.3 519.2,198 520.9,198C526.7,198 529.6,189.1 524.5,186.8C521.1,185.3 516.9,186.7 515.3,190C514.6,191.4 513.6,192.5 513,192.4C510.4,192.1 510,191.9 510,190.4C510,189.5 511.5,187.3 513.4,185.4C516.3,182.5 517.5,182 521.5,182C525.3,182 526.7,182.5 529.1,184.9C532.6,188.5 533.2,194.6 530.1,197.4C528.3,199 528.3,199.2 531.1,202C536.7,207.5 534.2,217.1 526.5,220C522.8,221.4 518,221.2 514.9,219.5Z" style="fill-rule:nonzero;"/>
                    <path d="M761.7,218C757.3,214.2 756.6,210 760.3,210C761.9,210 762.9,210.9 763.7,213C765,216.4 768.8,217.8 772.9,216.4C776.7,215.1 778.9,208.5 776.9,204.5C776.1,202.8 774.2,200.9 772.6,200.1C769.9,198.9 769.3,198.9 765.5,201C759.1,204.5 757.9,203.5 759.5,195.8C760.2,192.3 761.1,187.8 761.4,185.7L762.1,181.9L771.3,182.2C780,182.5 780.5,182.6 780.8,184.8C781.1,186.9 780.8,187 773.7,187L766.2,187L765.1,191.6C763.7,197 764,197.6 767.1,196C772.5,193.1 781.4,198.1 782.6,204.8C783.5,209.2 781.7,215 778.5,218C776.7,219.7 774.5,220.5 770.7,220.8C765.8,221.2 765,221 761.7,218Z" style="fill-rule:nonzero;"/>
                    <path d="M900,219.7C895.7,217.6 893,210.7 893,202C893.1,188.6 898.6,181.2 907.8,182.3C912.8,182.8 917,186.4 917,190.1C917,192.7 913.4,192.6 912,190C910.5,187.3 907.3,185.7 904.4,186.4C901.3,187.2 898,192.5 898,196.8L898,200.1L900.6,198.1C904.9,194.7 910.5,195.3 914.6,199.4C917.4,202.2 918,203.5 918,207.2C918,212.5 915.3,218.1 912,219.7C908.8,221.3 903.2,221.3 900,219.7ZM910.9,214.4C916.7,207.1 909.8,196.8 902,201C899.7,202.2 897.7,208 898.6,210.6C900.9,217 907.3,219 910.9,214.4Z" style="fill-rule:nonzero;"/>
                    <path d="M1022.5,220.1C1020.7,217.1 1027.9,196.8 1033.1,190.2L1035.2,187.5L1026.1,187.2C1017.2,186.9 1017,186.9 1017,184.5L1017,182L1029.5,182C1044.1,182 1044.1,182 1038.1,190.8C1033.9,197 1029.2,208.2 1028.3,213.9C1028,215.9 1027.3,218.3 1026.8,219.3C1025.9,221.1 1023.5,221.6 1022.5,220.1Z" style="fill-rule:nonzero;"/>
                    <path d="M121.5,218.8C117.4,215.6 116,211.2 116,201.7C116,191.9 117.6,187.1 121.9,184.1C129.3,178.8 137.6,183.5 140,194.3C141.6,201.3 140.2,212.4 137.4,216.4C133.6,221.4 126.2,222.6 121.5,218.8ZM133.3,213.8C135,211.5 135.4,209.6 135.3,201.7C135.3,196.6 134.8,191.4 134.1,190.2C131.3,185 125.1,185 122.4,190.1C120,194.8 120.7,211.9 123.4,214.9C126.1,217.9 130.7,217.3 133.3,213.8Z" style="fill-rule:nonzero;"/>
                    <path d="M249,220L249,191L245,193C240.2,195.5 240,195.5 240,193C240,191.9 241.8,189.9 244.5,188C247,186.3 249.4,184 250,183C250.6,181.9 251.7,181 252.5,181C253.8,181 254,184 254,200.5L254,220L249,220Z" style="fill-rule:nonzero;"/>
                    <path d="M633,215.5L633,211L625,211C617.3,211 617,210.9 617,208.7C617,205.3 633.1,182.6 635.8,182.2C638,181.9 638,182.1 638,194.4L638,207L640.5,207C642.3,207 643,207.5 643,209C643,210.5 642.3,211 640.5,211C638.2,211 638,211.4 638,215.5C638,219.6 637.8,220 635.5,220C633.2,220 633,219.6 633,215.5ZM633,198.8C633,194.2 632.6,191 632.1,191.6C630.7,193.2 622,206 622,206.5C622,206.8 624.5,207 627.5,207L633,207L633,198.8Z" style="fill-rule:nonzero;"/>
                </g>
            </g>
        </g>
        <g transform="matrix(1.80334,0,0,1.74788,-352.202,-193.507)">
            <path d="M440.293,256.219L440.753,260.254L437.668,260.254L440.293,256.219Z" style="fill:rgb(34,34,34);"/>
        </g>
        <g transform="matrix(1.00139,0,0,0.519906,0,173.314)">
            <rect x="0" y="0" width="481.333" height="361" style="fill:rgb(33,33,33);"/>
        </g>
    </g>
    <g transform="matrix(1.112,0,0,1.112,-141.963,-148.183)">
        <text x="173.293px" y="308.382px" style="font-family:'HiraKakuStd-W8', 'Hiragino Kaku Gothic Std', sans-serif;font-weight:800;font-size:15.574px;fill:white;fill-opacity:0.69;">Tile 3 is top[1] + right[2]</text>
        <text x="173.293px" y="344.353px" style="font-family:'HiraKakuStd-W8', 'Hiragino Kaku Gothic Std', sans-serif;font-weight:800;font-size:15.574px;fill:white;fill-opacity:0.69;">Tile 5 is top[1] + bottom[4]</text>
        <text x="173.293px" y="380.325px" style="font-family:'HiraKakuStd-W8', 'Hiragino Kaku Gothic Std', sans-serif;font-weight:800;font-size:15.574px;fill:white;fill-opacity:0.69;">Tile 7 is top [1] + right[2] + bottom[4]</text>
        <text x="173.293px" y="416.296px" style="font-family:'HiraKakuStd-W8', 'Hiragino Kaku Gothic Std', sans-serif;font-weight:800;font-size:15.574px;fill:white;fill-opacity:0.69;">Tile 15 is all[1 + 2 + 4 + 8]</text>
    </g>
</svg>
