<?xml version="1.0" encoding="UTF-8" standalone="no"?>
<!DOCTYPE svg PUBLIC "-//W3C//DTD SVG 1.1//EN" "http://www.w3.org/Graphics/SVG/1.1/DTD/svg11.dtd">
<svg width="100%" height="100%" viewBox="0 0 482 361" version="1.1" xmlns="http://www.w3.org/2000/svg" xmlns:xlink="http://www.w3.org/1999/xlink" xml:space="preserve" xmlns:serif="http://www.serif.com/" style="fill-rule:evenodd;clip-rule:evenodd;stroke-linecap:round;stroke-linejoin:round;stroke-miterlimit:1.5;">
    <rect x="0" y="0" width="481.333" height="361" style="fill:rgb(33,33,33);"/>
    <g transform="matrix(0.950344,0,0,0.950344,34.4778,27.4589)">
        <g transform="matrix(1.62387,0,0,1.38858,-139.343,-90.0786)">
            <rect x="222.502" y="136.346" width="83.099" height="78.019" style="fill:rgb(145,166,90);fill-opacity:0.75;"/>
        </g>
        <g transform="matrix(1.62387,0,0,1.38858,-236.897,-35.9111)">
            <rect x="222.502" y="136.346" width="83.099" height="78.019" style="fill:rgb(166,90,90);fill-opacity:0.75;"/>
        </g>
        <g>
            <path d="M124.418,153.416L259.361,153.416" style="fill:none;stroke:rgb(70,130,212);stroke-width:2.63px;"/>
            <g transform="matrix(0.94547,0.32571,-0.32571,0.94547,55.0435,-39.3119)">
                <path d="M110.722,108.409L157.325,142.533" style="fill:none;stroke:rgb(70,130,212);stroke-width:2.63px;"/>
            </g>
            <g transform="matrix(0.571564,0,0,0.571564,-112.525,-109.896)">
                <text x="289.444px" y="271.747px" style="font-family:'ArialMT', 'Arial', sans-serif;font-size:34.755px;fill:rgb(70,130,212);">The top edge is &quot;less&quot; to</text>
                <text x="289.444px" y="307.639px" style="font-family:'ArialMT', 'Arial', sans-serif;font-size:34.755px;fill:rgb(70,130,212);">the bottom than the others</text>
                <text x="289.444px" y="343.53px" style="font-family:'ArialMT', 'Arial', sans-serif;font-size:34.755px;fill:rgb(70,130,212);">bottom edge</text>
            </g>
        </g>
        <g>
            <path d="M259.361,153.416L259.361,261.751" style="fill:none;stroke:rgb(136,212,70);stroke-width:2.63px;"/>
            <path d="M274.318,238.975L293.778,261.751" style="fill:none;stroke:rgb(136,212,70);stroke-width:2.63px;"/>
            <g transform="matrix(0.571564,0,0,0.571564,74.8818,129.264)">
                <text x="289.444px" y="271.747px" style="font-family:'ArialMT', 'Arial', sans-serif;font-size:34.755px;fill:rgb(136,212,70);">The right edge is more to</text>
                <text x="289.444px" y="307.639px" style="font-family:'ArialMT', 'Arial', sans-serif;font-size:34.755px;fill:rgb(136,212,70);">the right than the others</text>
                <text x="289.444px" y="343.53px" style="font-family:'ArialMT', 'Arial', sans-serif;font-size:34.755px;fill:rgb(136,212,70);">left edge</text>
            </g>
        </g>
    </g>
    <g transform="matrix(1,0,0,1,2.53136,-11.2062)">
        <path d="M17.469,31.206L17.469,224.729" style="fill:none;stroke:white;stroke-width:2.5px;"/>
        <g transform="matrix(6.12323e-17,1,-1,6.12323e-17,242.198,13.7376)">
            <path d="M17.469,31.206L17.469,224.729" style="fill:none;stroke:white;stroke-width:2.5px;"/>
        </g>
    </g>
    <g transform="matrix(1,0,0,1,1.80888,-12.558)">
        <text x="11.615px" y="246.045px" style="font-family:'ArialMT', 'Arial', sans-serif;font-size:19.864px;fill:white;">Y</text>
    </g>
    <g transform="matrix(1,0,0,1,17.7205,-200.226)">
        <text x="11.615px" y="246.045px" style="font-family:'ArialMT', 'Arial', sans-serif;font-size:19.864px;fill:white;">(0,0)</text>
    </g>
    <g transform="matrix(1,0,0,1,17.7205,-36.7027)">
        <text x="11.615px" y="246.045px" style="font-family:'ArialMT', 'Arial', sans-serif;font-size:19.864px;fill:white;">(0,100)</text>
    </g>
    <g transform="matrix(1,0,0,1,127.252,-200.226)">
        <text x="11.615px" y="246.045px" style="font-family:'ArialMT', 'Arial', sans-serif;font-size:19.864px;fill:white;">(100, 0)</text>
    </g>
    <g transform="matrix(1,0,0,1,207.01,-218.936)">
        <text x="11.615px" y="246.045px" style="font-family:'ArialMT', 'Arial', sans-serif;font-size:19.864px;fill:white;">X</text>
    </g>
    <g transform="matrix(1,0,0,0.439186,-34.2421,125.645)">
        <path d="M58.484,180.5L50,180.5L54.242,208.062L58.484,180.5Z" style="fill:white;"/>
    </g>
    <g transform="matrix(6.12323e-17,-1,0.439186,2.68924e-17,127.335,74.2421)">
        <path d="M58.484,180.5L50,180.5L54.242,208.062L58.484,180.5Z" style="fill:white;"/>
    </g>
    <g transform="matrix(0.834852,0,0,0.834852,64.4471,150.149)">
        <text x="11.615px" y="246.045px" style="font-family:'ArialMT', 'Arial', sans-serif;font-size:19.864px;fill:white;fill-opacity:0.23;">In most situations, <tspan x="176.864px 189.755px 195.274px " y="246.045px 246.045px 246.045px ">Y w</tspan>ill increase downwards</text>
    </g>
</svg>
